<svg aria-hidden="true" style="width:0;height:0;position:absolute;overflow:hidden" xmlns="http://www.w3.org/2000/svg"><defs><symbol id="icon-map" viewBox="0 0 36 24"><path d="M25.141 19.155c-.019-.002-.032.012-.048.011-.02-.002-.037-.018-.058-.019l-.009.003-.002.011c.002.011.05.057.06.061.02.009.064-.022.071-.04 0-.01-.004-.022-.013-.026zm-.609.008c-.022-.006-.036.006-.05.02l-.003.013.004.009a.05.05 0 0 0 .055-.014c.004-.009.002-.023-.006-.028zm-.025-.33c.019-.013.056-.054.037-.078-.024-.002-.068.043-.067.066l.006.007a.064.064 0 0 0 .023.005zm-.046.161c.014-.012.005-.12-.008-.135l-.009-.003c-.027.021-.035.124-.002.141.005.001.015 0 .019-.003zm-.335-.326c.014-.026-.005-.057-.016-.081a.03.03 0 0 0-.021-.002c-.014.008-.028.076-.037.095-.047.014-.012.075-.029.096-.005.005-.041.011-.054.018a.15.15 0 0 0-.009.081c.007.024.051.08.076.087l.01-.002.003-.01c-.011-.03-.028-.062-.009-.093l.008-.004.012.002c.03.018.003.072.007.095l.006.008c.038.004.091-.03.086-.07-.001-.01-.012-.015-.018-.022.001-.034.046-.108.021-.136-.026.005-.032.068-.056.088l-.011.001c-.008-.016.006-.05.002-.071-.003-.013-.018-.034-.016-.046.003-.015.03-.028.043-.035zm-.666.169c-.002.003-.008.005-.011.007-.008.017-.003.038.017.044.022-.014.002-.037-.006-.051zm1.483.954-.008-.006c-.008-.04.026-.048.037-.073.012-.026-.003-.057.005-.081a.447.447 0 0 1 .126-.077l.009.003c.006.01.011.026.023.031.026-.018.016-.111-.005-.134l-.009.003c-.014.015-.017.038-.033.054-.02.021-.117.046-.15.059-.055.02-.047.053-.076.087-.02.024-.074.058-.085.075-.006.009-.01.021-.015.031-.017.008-.035-.003-.051.004-.024.011-.024.032-.039.042-.018.011-.038.009-.058.014-.012.003-.022.012-.033.016a.05.05 0 0 1-.021.001l-.004-.01c0-.006.004-.014.008-.019.011-.004.019-.016.03-.022.098-.053.029-.052.071-.103.019-.023.045-.034.061-.061.012-.021-.002-.046.011-.067.023-.035.103-.002.127-.079.004-.012.001-.023.002-.035a.125.125 0 0 0 .026-.03c.01-.019.033-.081.012-.096-.017-.012-.04-.016-.055-.032-.016-.003-.033-.006-.048-.013-.017-.008-.063-.039-.08-.026l.002.01c.007.006.011.015.016.023.023.029.076.084.034.118l-.01.003c-.016-.003-.028-.015-.046-.013-.045.004-.056.176-.112.13-.016-.028-.049-.077-.037-.11.005-.015.024-.017.032-.032a.058.058 0 0 0-.015-.025l-.023-.003c-.006 0-.028.012-.035.015s-.02.006-.025.012c-.01.011-.014.03-.017.044-.004.017-.008.033-.008.051 0 .027.013.076.002.099a.022.022 0 0 1-.018.003c-.027-.026.001-.069-.005-.101h-.01c-.012.005-.022.03-.029.041l-.009.003-.006-.002c.002-.016.015-.048.002-.06-.017.01-.025.044-.048.046l-.005-.008c0-.01.006-.017.011-.025a.159.159 0 0 0 .021-.071l.007-.007.004-.009.008-.005c.031.001.037-.002.047-.03.008-.021.033-.043.01-.067-.028-.029-.086-.039-.105-.067v-.011c.013-.013.033-.004.048-.012.003-.018-.013-.027-.02-.042-.013-.027-.034-.08-.073-.067-.022.018-.013.057-.025.079-.017.03-.079-.007-.091-.027-.019-.032.024-.08.005-.116l-.008-.005-.008.001c-.005.004-.033.069-.039.081-.013.029-.013.038-.044.053a.185.185 0 0 1-.023-.004c-.029-.034.049-.066.004-.094a9.686 9.686 0 0 1-.141-.02c-.024-.013-.037-.047-.071-.042l-.007.006.001.011.007.01c.011.012.023.021.032.034.005.007.009.018.015.024.004.005.012.008.017.011.018.006.082.05.092.065.013.02.025.138.013.157-.017.025-.072.024-.096.036a.043.043 0 0 0-.019-.004c-.017-.014-.068-.099-.058-.119l.01-.003c.019.006.037.027.059.018a.166.166 0 0 0 .036-.063l-.005-.009c-.044-.023-.12-.106-.161-.143-.017-.015-.037-.028-.051-.046-.031-.039-.057-.09-.101-.116-.027-.015-.159-.015-.135.046.016.041.097.011.111.039.003.041-.057.026-.048.07.011.019.034.033.04.053l-.003.012c-.007.006-.014.015-.021.02-.058.037-.08-.075-.098-.098a.056.056 0 0 0-.026-.017c-.027.015-.017.038-.032.053-.019.006-.019.006-.039.009a.086.086 0 0 0-.014.013h-.009l-.005-.008c.002-.009.01-.024.007-.033l-.011-.016c.007-.02.054-.022.039-.075-.007-.026-.031-.032-.049-.047-.012-.011-.043-.048-.04-.065.002-.01.018-.024.025-.031.01-.027-.003-.079-.01-.107-.011-.014-.035-.015-.05-.023-.011-.006-.023-.022-.033-.024l-.008.005c-.006.043.017.135-.026.163a.05.05 0 0 1-.021-.002c-.014-.011-.015-.029-.028-.039s-.035-.014-.05-.023a.256.256 0 0 1-.081-.106.09.09 0 0 1 .007-.046c-.011-.038-.07-.039-.065-.081l.005-.009c.01-.004.021-.002.032-.004a.21.21 0 0 0 .065.029c.01-.017.024-.066.039-.075.042-.005.032-.004.059-.032h.02c.022.005.049.069.098.083.064.019.078-.032.1-.036l.012.004c.008.009.014.023.023.031.04.033.117-.009.152.046.017.028.018.065.032.095.016.035.056.056.073.09.004.007.008.025.013.029.003.003.003.004.008.005l.007.002c.025-.011.014-.051.038-.063.045-.012.027.088.07.084a.142.142 0 0 0 .018-.008l.012.002a.05.05 0 0 1 .015.025c.008.005.02.008.03.004a.05.05 0 0 0 .013-.016c.004-.017-.012-.031-.016-.046-.007-.022.005-.042-.005-.065-.014-.031-.043-.018-.065-.036-.016-.013-.019-.022-.03-.038l.005-.01c.02-.002.036.02.051.016.026-.017.02-.051.042-.073h.011c.01.006.013.012.019.021s.013.014.018.024c.022.048-.019.097-.008.129l.006.007.011-.001c.029-.04.059-.029.079-.093.003-.008.006-.019.002-.027-.008-.015-.031-.007-.043-.028-.016-.03-.036-.042-.051-.069-.019-.035-.001-.142.005-.183l.008-.005c.01-.003.02.003.029.007.045.024.068.061.095.102.005.007.009.018.015.025.017.019.029.03.04.053.014.029.029.119.041.133.009.012.038.024.052.032.014.031 0 .189.023.203.046.001.033-.116.037-.145.002-.015.017-.066.012-.076-.021-.026-.049-.016-.068-.035-.021-.021.027-.097.053-.1.02.007.039.049.057.066.029.028.049.003.069.018.023.016.021.046.042.063.017.013.047.013.066.025.035.021.056.083.121.043.043-.026.037-.094.064-.128.005-.004.015-.004.02-.003.013.008.063.092.065.107s-.005.02-.008.032c-.013.05.012.07-.023.134-.009.017-.031.044-.05.017-.012-.017-.007-.046-.007-.065 0-.01-.004-.021-.005-.031l-.01-.004c-.023.002-.045.069-.054.088l-.009.004-.009-.003c-.017-.027.024-.05.013-.085l-.008-.006c-.03-.006-.033.03-.048.044-.011.01-.028.015-.038.027-.027.032-.021.102 0 .136a.134.134 0 0 1 .043.051l-.006.017c-.005.004-.015.004-.02.003-.014-.013-.025-.032-.044-.039l-.01.001c-.009.008-.011.017-.016.027-.008.015-.023.024-.031.039-.011.022-.007.057.021.063.036.008.07-.018.106-.003.034.039-.03.094-.001.126l.012.004c.054-.012.024-.08.075-.092.052.015.066.021.12.005.047-.052.036-.125.071-.183.02-.033.054-.063.053-.103a.251.251 0 0 0-.01-.062c-.004-.009-.009-.016-.012-.026a.428.428 0 0 1-.003-.147l.004-.004a.15.15 0 0 1 .148-.043c.01.004.018.012.026.018l.019.01a.316.316 0 0 1 .068.058c.016.017.035.027.046.048a.721.721 0 0 1 .023.134.021.021 0 0 1-.019.012c-.049 0-.057-.067-.086-.073-.02-.003-.075.034-.098.038-.009.002-.023.001-.032.001-.01.004-.015.016-.018.025a.089.089 0 0 0 .008.017c.013.006.028.011.041.018.035.017.019.066.027.086.002.005.035.05.039.053.01.009.025.013.036.022a.106.106 0 0 0 .018.033l.011.003c.041-.016.014-.072.042-.086l.009.001c.017.009.022.034.03.05.033.066.033.109.035.182.001.027-.002.059.006.085.014.043.074.046.058.094-.016.003-.029.018-.034.033-.006.02.018.053.013.082-.005.032-.068.124-.032.151.03.023.072-.031.081-.056.006-.014.008-.034.015-.047.001-.003.011-.01.014-.011.016-.003.021.005.033.012.077.05.056.148.09.221.022.046.054.086.078.131.008.014.003.027.005.042.002.012.008.026.012.038l.005.012c.007.013.017.025.024.038.008.015.011.032.02.047l.008.014c.013.017.033.016.054.053a.175.175 0 0 1 .022.053c.003.015-.002.027.005.042.014.027.063.072.086.103.017.023.038.069.054.089l.075.097c.012.015.018.034.03.049.029.039.051.079.077.12.011.018.027.035.04.053.034.046.044.106.078.152.014.018.026.036.044.05.016.012.037.018.048.036s.023.066.034.079c.014.015.031.017.05.024.001.005.009.006.012.01.014.017.018.04.032.055.005.005.01.007.014.013.017.008.037 0 .054.007.017.023.06.031.069.058a.055.055 0 0 1-.006.04c-.026.052-.088.06-.137.039-.045-.019-.034-.073-.091-.1-.023-.011-.048-.007-.071-.016-.02-.007-.035-.024-.054-.032-.024-.011-.052-.013-.079-.027-.033-.017-.058-.045-.088-.066-.069-.046-.088.078-.143.009-.012-.012-.019-.031-.033-.044-.025-.023-.056-.032-.076-.052-.011-.01-.013-.021-.021-.032.002-.09-.08-.11-.075-.143.001-.009.009-.022.018-.026s.028-.005.038-.009c.04-.013.093-.046.11-.087.013-.031-.013-.056-.022-.086-.006-.022.01-.073-.001-.113a.291.291 0 0 0-.047-.095c-.011-.014-.029-.027-.038-.042-.014-.025.006-.061-.013-.082-.016-.017-.042-.025-.059-.04-.009-.008-.016-.023-.027-.027-.024-.04-.002-.084-.046-.118-.036-.028-.078.021-.111.009-.075-.028-.008-.084-.15-.112l-.002-.011c.021-.028.075-.052.074-.089l-.006-.007c-.028-.008-.042.029-.062.039s-.039.006-.058.013c-.008.003-.015.013-.025.014-.027.002-.061-.042-.103-.04-.019.001-.036.014-.054.018l-.009-.004c.001-.024.077-.087.092-.118.014-.03-.003-.045-.011-.071-.005-.019-.003-.041-.011-.06a.033.033 0 0 0-.02-.017c-.038-.015-.053.025-.077.041-.011.007-.023.01-.034.016-.013.007-.026.018-.04.025a.108.108 0 0 1-.019.003zM16.792 4.665c-.002.018-.013.039-.033.039l-.005-.01c.001-.011.022-.035.033-.039l.005.01zM15.647 19.458c.01.006.021.003.031.008.008.004.007.01.01.016.019.034.004.03-.003.06-.003.012-.003.023-.01.034a.223.223 0 0 1-.039.009l-.009-.006-.002-.01a.032.032 0 0 0-.017-.011c-.01-.019 0-.039-.002-.059.004-.009.011-.014.018-.02.002-.012.003-.026.009-.036.007.001.012.009.015.015zM14.121 20.201c.007.007.015.012.018.022a.484.484 0 0 1-.035.166c-.008.013-.024.026-.028.04-.005.019-.006.059-.015.074s-.025.018-.036.029c-.022.021-.033.079-.021.106.017.038.038.019.06.037l-.003.012-.007.005c-.013.001-.025-.003-.037-.004a.53.53 0 0 0-.069 0c-.02-.01-.031-.032-.02-.053s.04-.022.047-.078c.003-.005.01-.011.015-.012.002-.003.007-.04.017-.059.015-.028.056-.085.062-.112a1.13 1.13 0 0 0-.002-.142c-.002-.011-.007-.019-.008-.031-.001-.022.002-.046-.005-.067-.005-.016-.022-.031-.025-.041 0-.011.004-.023.012-.032.015-.009.026.001.038.009.008.005.018.007.025.012a.24.24 0 0 1 .03.06c.001.019-.016.039-.01.059zM13.706 20.772c.022.009.051-.032.068-.045a.022.022 0 0 1 .019.003.028.028 0 0 1 .003.013c-.002.043-.024.037-.034.071-.004.015-.011.033-.012.048s.005.031.003.046c-.002.012-.011.019-.022.023l-.006.002c-.033-.01-.099.009-.126-.007-.012-.012.009-.078.004-.099l-.005-.012c-.006-.013-.014-.027-.019-.041-.003-.009-.005-.02-.009-.029-.007-.016-.021-.031-.006-.049l.011-.001c.018.008.03.094.06.095.003-.015-.007-.034-.008-.05-.002-.03.001-.087-.002-.11-.002-.015-.014-.031-.018-.046a.418.418 0 0 1-.005-.186c.014.003.014.012.019.021.005.008.013.014.018.021.019.027-.002.082.01.113.006.017.032.045.034.057l-.001.012c-.001.028.003.053.004.081 0 .012-.003.027-.001.038s.013.024.02.032zM12.941 20.313c.009.008.021.018.024.031.009.038-.008.119-.001.158.003.014.018.048.012.059l-.016.008.001.008c.011.007.042.026.044.039.001.008-.005.02-.004.026-.006.018-.001.041-.008.059-.003.007-.008.008-.009.018l.004.01c.01.003.015.012.021.019a.176.176 0 0 1 .023.148c-.005.019-.019.03-.021.051.004.006.004.012.006.018.009.025.022.051.023.079s-.024.051-.018.077l.005.007a.063.063 0 0 1 .027-.01c.01.005.013.015.023.02.01 0 .027 0 .034.008.001.01.001.024.003.034.007.025.062.032.058.061l-.006.007c-.015.004-.026-.01-.041-.005l-.002.009c.004.021.026.024.024.053-.007.014-.02.026-.03.038-.045.055-.06.014-.113.006-.023-.004-.045.005-.068 0-.009-.006-.009-.017-.018-.022-.017-.009-.051-.006-.06-.025-.003-.009.001-.014.002-.023s-.004-.014-.004-.021c-.001-.026.019-.066.05-.059.002.01-.002.024.005.032l.008.003.008-.005c.004-.01.011-.018.013-.028.012-.01.043-.032.046-.047l-.004-.01c-.015 0-.03.001-.044-.005a.345.345 0 0 1-.063-.069c-.008-.023.012-.058.013-.082.001-.02-.013-.042-.012-.063.001-.018.017-.037.017-.056 0-.016-.012-.036-.014-.054a1.227 1.227 0 0 1 .002-.227c.013-.067.051-.05.054-.1.001-.018-.015-.029-.019-.045-.003-.013.001-.025 0-.038-.002-.019-.039-.043-.046-.06-.023-.064.008-.119.002-.18-.002-.014-.011-.036-.008-.05.001-.006.003-.012.009-.016l.01.002c.014.015.032.099.04.123.005.015.019.027.021.044s-.011.03-.006.046zM12.446 21.144c-.018-.016-.012-.046-.026-.065-.008-.01-.032-.017-.042-.026-.009-.008-.014-.022-.022-.031-.007-.007-.017-.011-.025-.017-.028-.023-.028-.077-.002-.101.004-.004.004-.008.007-.012.007-.009.029-.024.041-.023.023.008.034.047.069.028.026 0 .023.026.044.035l.008-.004c.006-.012.004-.025.007-.038.005-.019.02-.027.023-.047s-.006-.045-.007-.067a.886.886 0 0 1 .012-.175l.008.002c.011.055-.002.113-.002.167 0 .026.013.047.017.071.003.021-.002.041-.001.062.002.045.017.191-.009.222-.011.014-.028.011-.044.013-.013.002-.046.01-.055.004zM16.094 17.979c.008-.006.023-.006.032-.004.039.012.022.06.012.086-.005.012-.005.024-.009.036.01.035.043.019.058.04.012.017.019.044.026.063.018.05.049.043.068-.001.012-.027 0-.038-.002-.062a.262.262 0 0 1 .019-.097c.02.02.024.083.028.11.002.013.009.025.012.039.003.021-.003.078.006.091.006.009.038.027.048.034.019.014.032.026.058.028.021.027.027.022.043.039.02.02.034.083.029.11-.005.021-.026.039-.019.064.007.007.012.017.019.023.013.011.031.018.043.03.014.012.017.035.03.049.019.022.091.056.093.083a.195.195 0 0 1-.022.064c-.009.014-.024.026-.033.041-.015.025-.06.08-.092.076-.034-.03-.022-.071-.043-.11-.011-.02-.069-.085-.072-.1s0-.031-.002-.046c-.004-.024-.024-.082-.04-.101s-.031-.013-.048-.023c-.018-.01-.028-.036-.049-.046-.011-.006-.022-.006-.032-.01-.006-.002-.012-.007-.018-.01-.046-.017-.099-.023-.14-.049a.31.31 0 0 1-.05-.046c-.017-.018-.029-.042-.045-.06l-.051-.056c-.01-.012-.017-.028-.026-.04-.012-.018-.033-.031-.039-.054a.087.087 0 0 1 .009-.055.786.786 0 0 1 .094-.111c.006-.003.013-.002.019-.004.01-.003.018-.009.028-.011.022-.004.027.006.05-.009l.008.001zM16.724 16.847c.007.018.021.034.025.053v.024a.393.393 0 0 0 .035.152c.027.049.046.041.082.069.016.012.039.039.053.055.037.042.028.107.055.138.028.033.113.095.127.131-.001.049-.066.08-.096.034-.014-.021-.022-.046-.037-.068-.024-.034-.052-.063-.072-.1s-.027-.082-.058-.111c-.03-.028-.072-.027-.108-.046-.01-.005-.023-.008-.028-.019l.004-.007c.019-.001.037.003.055.002l.006-.004c.003-.005.003-.015.002-.021a.242.242 0 0 1-.042-.099c-.003-.013-.011-.027-.01-.04.003-.028.018-.025.011-.068-.005-.029-.02-.063-.02-.092l.008-.001c.005.004.01.009.013.014l-.001.005zM16.923 16.81c.001.013.025.13.03.144.002.007.01.019.015.025.014.015.034.021.048.035.02.02.037.046.06.063.027.021.054.035.074.064.025.035.022.088.039.127.009.02.036.02.047.06-.012.037-.019.028-.022.078l-.006.008c-.02.007-.057-.003-.07-.02-.009-.013-.007-.043-.008-.058-.003-.062-.026-.108-.044-.165-.005-.015-.01-.032-.018-.046-.016-.028-.098-.065-.125-.097-.011-.013-.012-.03-.02-.045-.034-.06-.027-.052-.029-.121 0-.016-.007-.055 0-.068l.011-.001.008.004.004.01.006.004zM17.923 16.464l.009.003c.015.018-.009.047-.009.066 0 .021.03.062.048.071.013.006.033.009.047.013.037.047-.001.113.015.166.007.024.039.04.037.068s-.045.077-.04.102c.004.02.041.028.053.043l.001.011c-.008.014-.024.022-.036.031-.031.055.013.076-.017.129l-.009.003a.053.053 0 0 1-.023-.019c-.014-.026-.021-.056-.035-.082-.002-.004-.006-.01-.006-.015l.001-.012.007-.003c.014.002.038.001.047-.012l.003-.011a.42.42 0 0 1-.026-.135c.001-.023.018-.047.012-.072-.002-.01-.01-.017-.013-.025-.008-.02-.012-.049-.016-.071-.002-.007-.003-.013-.008-.018-.016-.019-.056-.014-.067-.034-.015-.028-.005-.056-.03-.095-.035-.012-.06-.048-.093-.062-.012-.005-.029-.007-.037-.019-.013-.018.006-.07-.005-.101-.006-.019-.022-.047-.022-.067s.004-.037.001-.058c-.004-.027-.019-.051-.024-.077-.003-.016-.001-.037-.007-.053-.003-.006-.008-.011-.01-.018a.338.338 0 0 1-.012-.11l.006-.004a.562.562 0 0 1 .036.083c.002.007-.001.016 0 .023.002.015.017.029.022.044.005.016.003.034.008.049.005.017.016.032.019.05.003.016 0 .031 0 .046.002.068.013.128.072.17.011.008.022.021.037.025.021.005.047-.013.068-.018zM21.753 21.119l-.007.004c-.012 0-.022-.006-.034-.005-.02.014-.004.061-.025.074-.012.007-.03.001-.041-.006-.017-.012-.078-.099-.076-.119l.005-.008.009-.003c.028.009.036.036.062.002.006-.008.015-.013.019-.023.016-.008.034-.002.048-.011.012-.007.014-.021.025-.029.006-.004.011-.004.018-.006.013-.004.034-.009.045-.016.008-.005.014-.011.023-.015l.027-.009c.024-.01.06-.047.082-.061h.011c.003.013-.011.039-.016.052a.262.262 0 0 1-.029.058c-.032.034-.094-.004-.132.033-.027.027 0 .066-.014.088zM22.822 21.453l.005.009a.028.028 0 0 1-.006.02c-.02.016-.064-.023-.093.02-.005.007-.007.018-.005.026l.005.008c.016.008.037.009.05.023.043.047-.037.103-.087.091-.016-.004-.034-.016-.048-.024-.048-.029-.047-.056-.082-.092-.011-.012-.021-.014-.034-.022-.007-.005-.015-.014-.021-.02a.045.045 0 0 1 .002-.023c.012-.02.059-.012.079-.011.007-.007.016-.01.023-.016.017-.015.023-.038.05-.042l.002.01c-.005.013-.02.042-.015.054.021.003.038-.027.057-.031.022-.004.023.009.039.014s.036-.007.052-.004c.008.002.019.008.027.011z"/><path d="M23.683 19.149c.013.02-.006.032-.012.049a.159.159 0 0 0-.002.078c.002.011.018.06.024.068.011.014.03.027.036.044.011.029.019.129-.027.129-.009 0-.021-.001-.028-.008-.026-.028.003-.088-.009-.121-.003-.008-.033-.03-.04-.042a.438.438 0 0 1-.016-.149c.003-.011.011-.016.016-.025.006-.01.006-.022.014-.032.011-.002.021-.005.032-.001.002.004.008.008.012.011zM23.774 19.063c.006.015.019.02.022.039a.135.135 0 0 1-.009.06c-.007.011-.017.02-.024.032-.015.028-.012.065.013.087.019.016.044.01.063.027.012.02-.008.044-.013.064s.007.037.001.056a.061.061 0 0 1-.012.016c-.013.005-.028-.002-.036-.012a1.02 1.02 0 0 1-.071-.241c.002-.013.029-.03.033-.053.003-.022-.012-.056.005-.078.009-.004.022.001.031.003zM25.132 18.911c.015.027.014.083-.016.1-.039.003-.029-.074-.021-.095a.059.059 0 0 1 .017-.01.066.066 0 0 1 .02.006zM27.313 20.906a.745.745 0 0 0 .021.054c.008.019.038.039.016.062-.057.019-.078.128-.152.106-.015-.01-.022-.061-.02-.078a.042.042 0 0 0 .006-.008c.007-.006.019-.006.027-.009l.069-.047c.02-.028-.005-.057-.001-.085l.005-.009h.011l.018.013zM26.303 17.155c-.033.068.054.124.055.173.001.026-.027.053-.029.09-.002.035.029.06.03.094 0 .015-.008.034-.011.049.012.03.013.025.033.047.004.005.004.01.012.015.002.011.01.017.01.029.001.02-.014.04-.005.06.007.014.042.023.057.032.013.007.013.021.026.028s.04.012.053.005c.038-.021.042-.087.064-.094l.006.004a.23.23 0 0 1-.034.089c-.016.025-.059.026-.08.049s-.045.065-.061.093c-.006.01-.01.023-.016.033-.008.013-.023.024-.033.036l-.01.002-.009-.003c-.015-.022.017-.055.003-.079-.018-.03-.067-.073-.081-.096-.015-.025.002-.051-.002-.077-.001-.008-.02-.031-.025-.04a1.115 1.115 0 0 1-.027-.107c-.002-.021.016-.04.011-.055a.103.103 0 0 1-.025-.03.254.254 0 0 1-.004-.099c.004-.017.024-.035.022-.051-.01-.02-.031-.035-.038-.054a.075.075 0 0 1-.002-.021c.003-.034.01-.04.008-.081a.05.05 0 0 1 .003-.017c.003-.006.021-.023.026-.028.01-.002.021.002.03-.002.011-.005.021-.015.033-.019l.009.001.004.01-.003.01.002.004zM16.765 3.62l.013.004c.025-.006.048-.054.074-.053.016.018.009.06.001.081-.005.013-.017.026-.02.039a.05.05 0 0 0 .002.024c-.002.01-.02.022-.027.03-.001.01.005.02.01.029 0 .009-.003.017-.003.026-.001.012.004.024.006.036v.012l-.002.009c-.003.018-.024.055-.022.067l.006.008c.017-.001.018-.016.041-.009a.122.122 0 0 1 .02.093.15.15 0 0 1-.02.04.949.949 0 0 0-.071.156c-.007.025-.002.036-.002.06 0 .021-.004.043-.006.064-.003.025-.019.059.001.081l.013.001a.069.069 0 0 0 .022-.023l.009-.004.009.005.004.01c-.003.043-.059.077-.067.124.01.024.045.025.065.039.015.025.008.05.009.077s.001.061-.009.088c-.012.033-.055.061-.089.065a.101.101 0 0 0-.013.016v.011c.017.01.052.021.062.029l.001.011c-.006.018-.04.018-.058.057-.003.03.043.072.032.109-.005.008-.025.014-.034.02a.591.591 0 0 0-.036.187c0 .01.024.094.029.1a.248.248 0 0 1 .019.077l-.006.009a.07.07 0 0 1-.025-.002c-.009-.033-.049-.028-.074-.045-.018-.061-.036-.038-.055-.069-.006-.009-.006-.018-.016-.025-.011-.007-.028-.012-.039-.021a.74.74 0 0 1-.044-.065c-.008-.019.003-.041.001-.06-.004-.056-.059-.102-.046-.159.041-.049.009-.051.014-.092a.707.707 0 0 1 .04-.145c.009-.016.02-.03.027-.047.012-.028.012-.055.022-.082.005-.013.017-.02.023-.032.003-.021-.013-.047-.012-.071l.023.004c.027-.019-.021-.111-.019-.133.002-.015.024-.034.015-.05a.058.058 0 0 0-.029-.017c-.022-.024 0-.077-.023-.116-.025-.042-.068-.014-.102-.025-.009-.003-.025-.019-.035-.024-.056-.029-.077-.026-.125.01-.022-.001-.072-.003-.075-.032-.001-.006-.001-.012.003-.016l.008-.006c.109.004.083-.043.121-.053.023.005.076.046.095.035.006-.003.01-.013.01-.019-.008-.014-.021-.041-.014-.057.013-.005.081.024.105-.004l.002-.011c-.006-.012-.019-.021-.023-.032l.002-.011c.024-.013.013-.041.015-.063l.018-.011c.005-.002.077-.01.081-.01.009.001.02.006.029.005a.049.049 0 0 0 .011-.004l.006-.009c0-.015.005-.047.002-.06-.006-.021-.052-.025-.067-.05-.005-.017.011-.041.014-.058.008-.004.022-.004.03-.004.016-.01.005-.044.012-.058.014-.028.07-.074.102-.055.015.009.016.033.027.045zM25.857 13.635c-.013-.004-.027-.009-.04-.01-.026-.002-.05.043-.05.064l.007.029a.216.216 0 0 0 .027.04c.049.06.09.122.095.202a.288.288 0 0 1-.004.083c-.009.036-.032.061-.043.094-.01.03-.018.061-.026.092-.003.011-.009.04-.015.048-.016.023-.05.029-.069.051-.009.01-.015.026-.021.039-.029.056-.049.119-.109.15-.04.021-.123.018-.169.02-.014.001-.029.005-.044.004-.031-.001-.048-.03-.076-.039s-.056-.006-.084-.007c-.016-.001-.032-.009-.048-.011-.026-.002-.053.004-.078.003s-.036-.024-.057-.032c-.024-.01-.048-.004-.071-.013-.066-.027-.071-.084-.152-.093-.045-.005-.075.027-.116.032-.022.003-.045.005-.067.003-.015-.002-.033-.007-.048-.005-.019.002-.058.004-.061.028.01.022.035.031.041.054.013.055-.076.019-.102.046a.698.698 0 0 0-.032.056c-.009.006-.023.004-.032 0-.021-.02-.027-.051-.049-.071-.013-.012-.052-.015-.071-.023-.016-.007-.029-.026-.041-.03l-.012-.001c-.019.002-.023.024-.039.03-.012-.001-.017-.008-.023-.017-.024-.037.011-.056.009-.084a.028.028 0 0 0-.012-.016c-.015-.004-.036.008-.07-.003-.01 0-.019.009-.023.018.003.043.055.059.065.095.006.022.003.057-.018.071-.009.006-.016.006-.024.016-.017.02-.017.078-.062.063-.004-.001-.027-.02-.033-.024-.028-.008-.036.032-.064.024-.031-.009-.05-.103-.09-.138a.131.131 0 0 0-.051-.023c-.049-.012-.077.001-.113.035-.008.007-.012.016-.02.023-.018.015-.044.013-.064.024-.015.008-.026.03-.043.04l-.012-.004c-.019-.019-.019-.05-.039-.067l-.011-.003c-.022.018-.006.081-.008.108-.003.03-.021.043-.004.076a.23.23 0 0 0 .021.033c.012.014.043.031.043.052l-.005.01c-.013.014-.047.001-.068.018-.012.04.136.142.141.24.001.011 0 .025-.008.033-.017.017-.041.002-.061.008l-.007.007c-.003.026.055.074.048.119-.005.036-.08.14-.102.176-.015.025-.022.057-.038.081-.013.005-.029-.006-.046.002-.02.009-.027.046-.038.064-.005.008-.014.013-.022.019-.019.016-.041.029-.061.046-.01.008-.015.022-.027.029a.06.06 0 0 1-.019.005c-.019 0-.053-.013-.076-.016l-.017.01.001.01.006.009c.024.016.067.001.075.05.011.069-.051.139-.084.193a.44.44 0 0 1-.023.036c-.012.015-.027.029-.039.045-.03.039-.051.109-.113.122l-.007-.004c-.018-.024.028-.086.015-.116l-.01-.005c-.02.009-.047.075-.05.096-.003.02.006.051-.009.067-.038.016-.079-.012-.095-.011a.027.027 0 0 0-.013.013c-.006.032.022.04.043.053.013.008.02.02.037.019.012-.001.024-.01.037-.011l.01.004c.033.034-.029.068-.04.081a.264.264 0 0 0-.023.035c-.027.06.011.14-.003.173-.01.024-.033.016-.051.027-.018.018.003.071-.019.099-.011.015-.034.023-.052.023-.08-.003-.079-.032-.133-.073-.009-.007-.019-.005-.03-.008l-.007.003c-.007.023-.001.049-.01.072-.001.001-.092.032-.109.041-.042.025-.061.093-.099.124-.031.026-.065.039-.101.057l.03.066a.537.537 0 0 0 .099-.039c.012-.01.021-.025.034-.035s.025-.014.037-.028c.022-.025.032-.061.063-.077a.154.154 0 0 1 .047-.016c.028-.003.053.003.081.003.038.001.077-.002.114.002.02.002.063.009.081.005.053-.012.058-.069.096-.097.021-.015.069-.016.093-.012.008.001.016.005.024.004l.008-.005.005-.01c-.007-.04-.059-.059-.096-.051-.011.002-.018.007-.03.007l-.008-.006c.004-.023.015-.039.028-.058.006-.009.01-.018.019-.025.068-.051.216-.027.246-.053-.012-.057-.142 0-.181-.018l-.012-.015c-.001-.014-.005-.028-.005-.043a.317.317 0 0 1 .046-.16c.015-.019.037-.036.056-.052.013-.011.022-.023.036-.033.02-.016.053-.058.073-.079.015-.015.05-.028.061-.046.025-.039.014-.105.034-.147.025-.054.085-.045.103-.069s.019-.057.037-.082c.011-.016.028-.029.04-.044s.023-.035.036-.05c.026-.03.054-.059.076-.092.036-.051.03-.106.044-.163.007-.027.019-.054.029-.08.009-.022.013-.039.033-.055.056-.045.196-.004.254.024.026.012.046.038.076.041l.007-.006.004-.012c-.016-.041-.088-.067-.096-.097-.009-.034.083-.074.044-.105l-.012-.001c-.019.01-.051.06-.078.073-.092.043-.125-.003-.194.003-.009.007-.02.022-.032.022l-.005-.008c.001-.041-.006-.142.012-.174.032-.055.097-.02.143-.025.02-.002.052-.018.07-.015.012.002.018.012.028.017a.317.317 0 0 0 .069.007.317.317 0 0 0 .114-.036c.034.002.024.011.042.028l.011.003c.019-.007.032-.019.047-.032.029-.025.057-.039.078-.074.022-.036.019-.08.052-.112.05-.048.124.005.199-.008.048-.009.061-.017.092-.052.007-.008.01-.017.019-.024.016-.013.031-.008.049-.011.022-.005.055-.03.076-.04a.365.365 0 0 1 .056-.018c.009-.002.02-.008.029-.008.037.001.083.063.117.074.039.013.072-.002.119.023.039.021.044.061.069.092.02.026.055.057.084.074.011.007.026.014.035.023l.022.021c.021.026.038.075.065.094.019.013.043.017.062.028.03.016.035.028.073.026a.202.202 0 0 0 .11-.042c.014-.011.027-.03.044-.038.019-.009.043.003.065-.004.02-.014.002-.065.031-.082l.009-.004c.038-.02.062.002.1.006.03.003.071.005.101.001a.22.22 0 0 0 .068-.018c.018-.01.03-.024.051-.029.039.003.055.116.108.079.003-.016-.036-.072-.037-.102-.002-.064.066-.067.085-.095.022-.032.003-.081.003-.117 0-.021.004-.037.001-.058-.007-.039-.073-.058-.093-.099-.021-.043.006-.09-.016-.138-.011-.023-.037-.038-.052-.059a2.435 2.435 0 0 1-.075-.112c-.025-.054.012-.077-.005-.117-.009-.021-.032-.035-.039-.055-.01-.027-.012-.07-.028-.095-.014-.022-.035-.035-.05-.055a.364.364 0 0 1-.054-.137zm.059.185-.006.009c-.028.013-.05-.037-.062-.053-.017-.022-.068-.073-.045-.104a.033.033 0 0 1 .019-.006c.007.007.016.012.022.02.022.029.028.065.05.094.008.01.025.027.023.041zM18.565 7.663l.006-.001c.018.011.01.036.009.053-.002.021-.014.082-.012.096.006.037.032.054.053.081.011.015.025.031.034.047.011.018.014.036.028.053.029.035.105.075.142.103.013.01.025.023.037.034.027.023.02.057.034.072-.001.002.007.011.011.015.034.045.057.033.102.048.027.009.054.021.082.026.048.009.065-.02.116.006.04.021.108.213.154.232.036.015.067.004.102-.003.033-.007.074-.002.096-.034.02-.029.003-.086.047-.102a.082.082 0 0 1 .035.004c.011.005.086.063.099.074.01.008.019.021.026.032s.003.009.005.019c.005.028.032.073.034.084a.11.11 0 0 1 .022.021l.037.007c.023.005.033.017.061.019.007 0 .014.002.021.005.018.01.024.025.047.026.011.001.024-.003.035-.003.024.002.048.011.073.005.045-.011.031-.054.124-.018.046.018.087.083.128.114.016.012.035.023.05.036.018.015.035.032.054.046.009.007.015.017.023.024a.443.443 0 0 0 .101.082c.017.009.037.014.055.021a.457.457 0 0 1 .091.046c.009.006.018.014.028.017.033.007.045-.042.072-.027.01.01.009.036.016.048a.111.111 0 0 0 .047.039c.006.003.01.01.016.013.031.02.068.03.105.032.043.003.162-.005.133-.074-.022-.052-.07-.041-.11-.067-.048-.031-.018-.073-.036-.105-.021-.037-.101-.059-.113-.1.001-.01.033-.064.04-.08a.674.674 0 0 0 .033-.108c.004-.025.001-.051.009-.076a.056.056 0 0 1 .014-.025c.01-.009.056-.014.071-.018.014-.004.037-.019.051-.018.004.003.01.01.012.015.005.012.004.029.01.041.009.021.022.04.03.061l-.001.004c-.005.022-.019.019-.032.033a.516.516 0 0 0-.061.122l.009.005c.024 0 .046-.006.07-.003.018.002.034.01.052.013.009.002.017.001.025.004.024.011.054.065.088.081.013.007.027.007.04.012.016.006.036.01.04.029-.001.035-.099.072-.054.105.03.007.076-.028.104-.02.052.014.036.083.044.117.002.009.009.018.012.027l.009.04.002.01c.017.038.067.041.09.057.018.012.029.027.049.038l.009.005c.005.004.009.01.015.014.009.028.026.055.035.082.005.016.003.033.008.048a.106.106 0 0 0 .011.021.435.435 0 0 0 .065.07c.01.007.022.009.033.013.027.011.05.038.066.061.013.019.01.029.016.048.011.034.03.078.053.105.027.032.073.031.093.067.026.049-.007.076.048.12.012.01.032.008.047.01.033.003.066.008.099.007.054-.002.093-.022.149-.005.007.002.014.007.021.01.012.005.027.005.039.01.026.009.119.104.159.127.01.005.045.021.055.022.006.001.014-.004.02-.004a.328.328 0 0 1 .088.012c.023.008.044.028.066.039.011.005.025.006.036.011.016.008.045.05.077.066.025.012.041.002.062.009.034.034.037.083.089.103.031.012.064-.009.093-.015a.215.215 0 0 1 .086.016c.067.026.066.034.117.074.015.012.024.031.042.041.011.006.024.005.036.012.015.009.027.024.041.032s.034.007.049.014c.028.013.04.038.078.042.025.026.116-.045.145-.053.009-.013.012-.028.02-.04a.114.114 0 0 1 .068-.038l.008.006c.008.01.002.028-.001.039a.21.21 0 0 1-.043.087c-.019.018-.083.042-.07.093.014.01.039.027.054.035.049.025.122-.033.162-.016l.005.008c0 .046-.072.026-.085.061l.008.008c.025.011.084-.024.113-.02.052.008.033.075.043.111.005.021.018.034.027.052.007.002.012.007.019.011.012.006.025.006.037.01.022.009.108.071.13.089.014.012.021.028.034.039.019.015.045.022.062.037.023.02.031.041.062.064.024.017.05.034.079.041.015.004.035.004.049.012.032.018.054.095.084.12.051.042.095.01.147.078.03.039-.005.057-.003.084.008.012.011.02.027.025l.05.013c.016.004.034.001.051.006.019.006.036.026.058.032.016.005.044.01.057.021.04.032.07.073.121.09l-.025.041c-.031-.016-.065-.024-.096-.041-.015-.008-.032-.017-.046-.027-.007-.005-.016-.016-.024-.02-.037-.018-.113-.029-.155-.041-.034-.009-.071-.031-.103-.039-.012-.003-.028-.007-.04-.008-.029-.003-.053.007-.083-.007-.032-.015-.008-.096-.041-.134-.027-.031-.137-.015-.18-.05-.048-.039-.009-.076-.046-.12-.009-.01-.021-.017-.03-.026l-.019-.023a.042.042 0 0 1-.006-.008c-.009-.007-.126.003-.204-.052-.045-.031-.045-.125-.117-.177a.09.09 0 0 0-.046-.012c-.041.007-.102.064-.144.011-.001-.011-.006-.024-.009-.035-.014-.06-.025-.05-.072-.084-.009-.006-.025-.02-.036-.022-.031.024-.03.052-.05.083-.004.006-.009.011-.012.018a.042.042 0 0 0-.016.011.058.058 0 0 1-.021-.01c-.003-.01-.009-.019-.01-.029a.22.22 0 0 0-.01-.051c-.004-.012-.015-.022-.02-.033-.014-.034.016-.081-.011-.109-.015-.015-.038-.019-.055-.029-.021-.012-.04-.032-.062-.041a.15.15 0 0 0-.05-.011c-.035.001-.108.038-.133.008-.005-.021.004-.038.001-.059-.009-.014-.019-.026-.032-.037s-.093-.056-.108-.057c-.031.004-.034.096-.043.123l-.008.007-.01.002-.01-.005a.07.07 0 0 1-.001-.032c-.004-.006-.004-.012-.006-.018a.183.183 0 0 0-.085-.095c-.018-.01-.039-.009-.054-.024-.008-.008-.023-.066-.032-.083l-.011-.016.006.009c-.021-.028-.03-.079-.056-.1-.035-.028-.06.01-.106-.029-.025-.021-.041-.052-.064-.074a.95.95 0 0 0-.181-.114.26.26 0 0 0-.099-.018c-.043.002-.085.008-.128.003l-.05-.004c-.058-.008-.081-.02-.117.037-.091.144.046.181.023.262a.09.09 0 0 1-.022-.006c-.014-.018-.029-.036-.04-.056-.008-.014-.011-.031-.022-.043-.03-.032-.087-.006-.119.01-.011.006-.021.016-.032.022a.41.41 0 0 1-.173.056l.001-.004c.051-.041.119-.058.177-.088.02-.01.035-.031.055-.04.015-.02-.002-.052-.005-.074-.003-.019.004-.038.005-.057.001-.029-.018-.053-.048-.054-.028-.001-.047.018-.078.003-.024-.011-.03-.041-.062-.036-.051.008-.034.047-.098.065-.01.003-.02.007-.031.006-.058-.004-.065-.079-.137-.081-.014-.001-.019.003-.031.007-.016.005-.035.006-.05.014-.034.019-.05.05-.094.025-.03-.017-.004-.051-.015-.071-.015-.027-.05-.046-.071-.07s-.036-.075-.053-.106c-.014-.027-.029-.023-.049-.039-.029-.022-.046-.057-.074-.079-.033-.025-.062-.033-.095-.054-.018-.011-.03-.027-.05-.036-.017-.008-.036-.014-.052-.025-.018-.012-.024-.038-.047-.05-.03-.016-.088-.017-.13-.042-.028-.016-.063-.06-.084-.085a1.72 1.72 0 0 0-.067-.06c-.033-.018-.08-.045-.112-.06-.021-.01-.065-.012-.089-.015a.39.39 0 0 1-.139-.055c-.015-.009-.046-.054-.06-.069s-.033-.024-.047-.037c-.014-.013-.025-.028-.039-.041-.008-.008-.02-.013-.028-.021-.019-.018-.036-.04-.058-.054-.042-.026-.08.017-.117-.023s-.029-.126-.093-.173c-.037-.028-.063-.007-.093-.021-.042-.019-.053-.084-.098-.098-.037-.012-.103.015-.157-.016-.058-.033-.123-.196-.153-.214-.066-.04-.139-.009-.202-.046-.046-.028-.091-.121-.126-.164-.04-.048-.136-.092-.173-.141-.024-.032-.038-.069-.058-.102-.013-.022-.036-.041-.043-.066-.013-.047.028-.111.019-.157z"/></symbol><symbol id="icon-polygon" viewBox="0 0 48 32"><path d="m24 0 24 32H0L24 0z"/></symbol><symbol id="icon-three-line" viewBox="0 0 32 32"><path fill="#fff" style="fill:var(--color1,#fff)" d="M0 0h32v32H0V0z"/><path style="fill:var(--color2,#000)" d="M10 10h2v12h-2V10zM15 10h2v12h-2V10zM20 10h2v12h-2V10z"/></symbol><symbol id="icon-play" viewBox="0 0 32 32"><path d="M6 4v24l20-12L6 4z"/></symbol><symbol id="icon-stop" viewBox="0 0 32 32"><path d="M5.333 4h8v24h-8V4zM18.667 4h8v24h-8V4z"/></symbol><symbol id="icon-graph" viewBox="0 0 537 32"><path d="M0 30.968h536.774V32H0v-1.032zM3.094 29.419h4.129v1.548H3.094v-1.548zM8.255 26.323h4.129v4.645H8.255v-4.645zM13.416 24.258h4.129v6.71h-4.129v-6.71zM18.578 22.71h4.129v8.258h-4.129V22.71zM23.739 19.613h4.129v11.355h-4.129V19.613zM28.9 19.613h4.129v11.355H28.9V19.613z"/><path d="M34.061 18.065h4.129v12.903h-4.129V18.065zM39.223 19.613h4.129v11.355h-4.129V19.613zM44.384 19.613h4.129v11.355h-4.129V19.613zM49.545 22.71h4.129v8.258h-4.129V22.71zM54.707 26.323h4.129v4.645h-4.129v-4.645zM59.868 26.323h4.129v4.645h-4.129v-4.645zM65.029 27.871h4.129v3.097h-4.129v-3.097zM70.19 27.871h4.129v3.097H70.19v-3.097zM75.352 27.871h4.129v3.097h-4.129v-3.097zM80.513 29.419h4.129v1.548h-4.129v-1.548zM85.674 29.419h4.129v1.548h-4.129v-1.548zM90.836 29.419h4.129v1.548h-4.129v-1.548zM95.997 29.419h4.129v1.548h-4.129v-1.548zM101.158 29.419h4.129v1.548h-4.129v-1.548zM106.319 29.419h4.129v1.548h-4.129v-1.548zM111.481 29.419h4.129v1.548h-4.129v-1.548zM116.642 29.419h4.129v1.548h-4.129v-1.548zM121.803 29.419h4.129v1.548h-4.129v-1.548zM126.965 29.419h4.129v1.548h-4.129v-1.548zM132.126 29.419h4.129v1.548h-4.129v-1.548zM137.287 29.419h4.129v1.548h-4.129v-1.548zM142.449 29.419h4.129v1.548h-4.129v-1.548zM147.61 30.452h4.129v.516h-4.129v-.516zM152.771 29.935h4.129v1.032h-4.129v-1.032zM163.094 29.935h4.129v1.032h-4.129v-1.032zM235.352 26.839h4.129v4.129h-4.129v-4.129zM240.513 22.71h4.129v8.258h-4.129V22.71zM245.674 19.613h4.129v11.355h-4.129V19.613zM250.836 18.065h4.129v12.903h-4.129V18.065zM255.997 15.484h4.129v15.484h-4.129V15.484zM261.158 7.226h4.129v23.742h-4.129V7.226zM266.319 22.71h4.129v8.258h-4.129V22.71zM271.481 11.355h4.129v19.613h-4.129V11.355zM276.642 19.613h4.129v11.355h-4.129V19.613zM281.803 11.355h4.129v19.613h-4.129V11.355zM286.965 11.355h4.129v19.613h-4.129V11.355zM292.126 11.355h4.129v19.613h-4.129V11.355zM297.287 19.613h4.129v11.355h-4.129V19.613zM302.449 11.355h4.129v19.613h-4.129V11.355zM307.61 19.613h4.129v11.355h-4.129V19.613zM312.771 11.355h4.129v19.613h-4.129V11.355zM317.932 22.71h4.129v8.258h-4.129V22.71zM323.094 11.355h4.129v19.613h-4.129V11.355zM328.255 11.355h4.129v19.613h-4.129V11.355zM333.416 11.355h4.129v19.613h-4.129V11.355zM338.578 11.355h4.129v19.613h-4.129V11.355zM343.739 11.355h4.129v19.613h-4.129V11.355zM348.9 11.355h4.129v19.613H348.9V11.355zM354.061 11.355h4.129v19.613h-4.129V11.355zM359.223 11.355h4.129v19.613h-4.129V11.355zM364.384 11.355h4.129v19.613h-4.129V11.355zM369.545 11.355h4.129v19.613h-4.129V11.355zM374.707 11.355h4.129v19.613h-4.129V11.355zM379.868 11.355h4.129v19.613h-4.129V11.355zM385.029 11.355h4.129v19.613h-4.129V11.355zM390.19 11.355h4.129v19.613h-4.129V11.355zM395.352 11.355h4.129v19.613h-4.129V11.355zM400.513 0h4.129v30.968h-4.129V0zM405.674 0h4.129v30.968h-4.129V0zM410.836 0h4.129v30.968h-4.129V0zM415.997 0h4.129v30.968h-4.129V0zM421.158 0h4.129v30.968h-4.129V0zM426.319 0h4.129v30.968h-4.129V0zM431.481 0h4.129v30.968h-4.129V0zM436.642 0h4.129v30.968h-4.129V0zM441.803 0h4.129v30.968h-4.129V0zM446.965 0h4.129v30.968h-4.129V0zM452.126 0h4.129v30.968h-4.129V0zM457.287 0h4.129v30.968h-4.129V0zM462.449 0h4.129v30.968h-4.129V0zM467.61 0h4.129v30.968h-4.129V0zM472.771 0h4.129v30.968h-4.129V0zM477.932 11.355h4.129v19.613h-4.129V11.355zM483.094 11.355h4.129v19.613h-4.129V11.355zM488.255 11.355h4.129v19.613h-4.129V11.355zM493.416 11.355h4.129v19.613h-4.129V11.355zM498.578 11.355h4.129v19.613h-4.129V11.355zM503.739 11.355h4.129v19.613h-4.129V11.355zM508.9 11.355h4.129v19.613H508.9V11.355zM514.061 11.355h4.129v19.613h-4.129V11.355zM519.221 11.355h4.129v19.613h-4.129V11.355zM524.382 11.355h4.129v19.613h-4.129V11.355zM529.543 11.355h4.129v19.613h-4.129V11.355z"/></symbol><symbol id="icon-ellipse" viewBox="0 0 32 32"><path fill="#c00000" style="fill:var(--color1,#c00000)" d="M14.522 5.62c6.275.329 11.095 5.683 10.766 11.958S19.605 28.673 13.33 28.344c-6.275-.329-11.095-5.683-10.766-11.958S8.247 5.291 14.522 5.62z"/></symbol></defs></svg>