<svg aria-hidden="true" style="position: absolute; width: 0; height: 0; overflow: hidden;" version="1.1" xmlns="http://www.w3.org/2000/svg" xmlns:xlink="http://www.w3.org/1999/xlink">
<defs>
<symbol id="icon-map" viewBox="0 0 36 24">
<path d="M25.141 19.155c-0.019-0.002-0.032 0.012-0.048 0.011-0.020-0.002-0.037-0.018-0.058-0.019l-0.009 0.003-0.002 0.011c0.002 0.011 0.050 0.057 0.060 0.061 0.020 0.009 0.064-0.022 0.071-0.040-0-0.010-0.004-0.022-0.013-0.026zM24.532 19.163c-0.022-0.006-0.036 0.006-0.050 0.020l-0.003 0.013 0.004 0.009c0.019 0.007 0.042 0.002 0.055-0.014 0.004-0.009 0.002-0.023-0.006-0.028zM24.507 18.833c0.019-0.013 0.056-0.054 0.037-0.078-0.024-0.002-0.068 0.043-0.067 0.066l0.006 0.007c0.007 0.003 0.016 0.005 0.023 0.005zM24.461 18.994c0.014-0.012 0.005-0.12-0.008-0.135l-0.009-0.003c-0.027 0.021-0.035 0.124-0.002 0.141 0.005 0.001 0.015-0 0.019-0.003zM24.126 18.668c0.014-0.026-0.005-0.057-0.016-0.081-0.005-0.003-0.015-0.004-0.021-0.002-0.014 0.008-0.028 0.076-0.037 0.095-0.047 0.014-0.012 0.075-0.029 0.096-0.005 0.005-0.041 0.011-0.054 0.018-0.010 0.018-0.014 0.061-0.009 0.081 0.007 0.024 0.051 0.080 0.076 0.087l0.010-0.002 0.003-0.010c-0.011-0.030-0.028-0.062-0.009-0.093l0.008-0.004 0.012 0.002c0.030 0.018 0.003 0.072 0.007 0.095l0.006 0.008c0.038 0.004 0.091-0.030 0.086-0.070-0.001-0.010-0.012-0.015-0.018-0.022 0.001-0.034 0.046-0.108 0.021-0.136-0.026 0.005-0.032 0.068-0.056 0.088l-0.011 0.001c-0.008-0.016 0.006-0.050 0.002-0.071-0.003-0.013-0.018-0.034-0.016-0.046 0.003-0.015 0.030-0.028 0.043-0.035zM23.46 18.837c-0.002 0.003-0.008 0.005-0.011 0.007-0.008 0.017-0.003 0.038 0.017 0.044 0.022-0.014 0.002-0.037-0.006-0.051zM24.943 19.791l-0.008-0.006c-0.008-0.040 0.026-0.048 0.037-0.073 0.012-0.026-0.003-0.057 0.005-0.081 0.005-0.016 0.106-0.071 0.126-0.077l0.009 0.003c0.006 0.010 0.011 0.026 0.023 0.031 0.026-0.018 0.016-0.111-0.005-0.134l-0.009 0.003c-0.014 0.015-0.017 0.038-0.033 0.054-0.020 0.021-0.117 0.046-0.15 0.059-0.055 0.020-0.047 0.053-0.076 0.087-0.020 0.024-0.074 0.058-0.085 0.075-0.006 0.009-0.010 0.021-0.015 0.031-0.017 0.008-0.035-0.003-0.051 0.004-0.024 0.011-0.024 0.032-0.039 0.042-0.018 0.011-0.038 0.009-0.058 0.014-0.012 0.003-0.022 0.012-0.033 0.016-0.007 0.002-0.014 0.002-0.021 0.001l-0.004-0.010c0-0.006 0.004-0.014 0.008-0.019 0.011-0.004 0.019-0.016 0.030-0.022 0.098-0.053 0.029-0.052 0.071-0.103 0.019-0.023 0.045-0.034 0.061-0.061 0.012-0.021-0.002-0.046 0.011-0.067 0.023-0.035 0.103-0.002 0.127-0.079 0.004-0.012 0.001-0.023 0.002-0.035 0.009-0.008 0.020-0.019 0.026-0.030 0.010-0.019 0.033-0.081 0.012-0.096-0.017-0.012-0.040-0.016-0.055-0.032-0.016-0.003-0.033-0.006-0.048-0.013-0.017-0.008-0.063-0.039-0.080-0.026l0.002 0.010c0.007 0.006 0.011 0.015 0.016 0.023 0.023 0.029 0.076 0.084 0.034 0.118l-0.010 0.003c-0.016-0.003-0.028-0.015-0.046-0.013-0.045 0.004-0.056 0.176-0.112 0.13-0.016-0.028-0.049-0.077-0.037-0.11 0.005-0.015 0.024-0.017 0.032-0.032-0.003-0.009-0.008-0.019-0.015-0.025-0.007-0-0.016-0.003-0.023-0.003-0.006 0-0.028 0.012-0.035 0.015s-0.020 0.006-0.025 0.012c-0.010 0.011-0.014 0.030-0.017 0.044-0.004 0.017-0.008 0.033-0.008 0.051 0 0.027 0.013 0.076 0.002 0.099-0.004 0.003-0.012 0.005-0.018 0.003-0.027-0.026 0.001-0.069-0.005-0.101h-0.010c-0.012 0.005-0.022 0.030-0.029 0.041l-0.009 0.003-0.006-0.002c0.002-0.016 0.015-0.048 0.002-0.060-0.017 0.010-0.025 0.044-0.048 0.046l-0.005-0.008c-0-0.010 0.006-0.017 0.011-0.025 0.014-0.019 0.018-0.048 0.021-0.071l0.007-0.007 0.004-0.009 0.008-0.005c0.031 0.001 0.037-0.002 0.047-0.030 0.008-0.021 0.033-0.043 0.010-0.067-0.028-0.029-0.086-0.039-0.105-0.067v-0.011c0.013-0.013 0.033-0.004 0.048-0.012 0.003-0.018-0.013-0.027-0.020-0.042-0.013-0.027-0.034-0.080-0.073-0.067-0.022 0.018-0.013 0.057-0.025 0.079-0.017 0.030-0.079-0.007-0.091-0.027-0.019-0.032 0.024-0.080 0.005-0.116l-0.008-0.005-0.008 0.001c-0.005 0.004-0.033 0.069-0.039 0.081-0.013 0.029-0.013 0.038-0.044 0.053-0.008-0.001-0.015-0.002-0.023-0.004-0.029-0.034 0.049-0.066 0.004-0.094-0.012-0.001-0.141-0.020-0.141-0.020-0.024-0.013-0.037-0.047-0.071-0.042l-0.007 0.006 0.001 0.011c0.002 0.004 0.005 0.007 0.007 0.010 0.011 0.012 0.023 0.021 0.032 0.034 0.005 0.007 0.009 0.018 0.015 0.024 0.004 0.005 0.012 0.008 0.017 0.011 0.018 0.006 0.082 0.050 0.092 0.065 0.013 0.020 0.025 0.138 0.013 0.157-0.017 0.025-0.072 0.024-0.096 0.036-0.006-0.003-0.013-0.004-0.019-0.004-0.017-0.014-0.068-0.099-0.058-0.119l0.010-0.003c0.019 0.006 0.037 0.027 0.059 0.018 0.010-0.008 0.036-0.051 0.036-0.063l-0.005-0.009c-0.044-0.023-0.12-0.106-0.161-0.143-0.017-0.015-0.037-0.028-0.051-0.046-0.031-0.039-0.057-0.090-0.101-0.116-0.027-0.015-0.159-0.015-0.135 0.046 0.016 0.041 0.097 0.011 0.111 0.039 0.003 0.041-0.057 0.026-0.048 0.070 0.011 0.019 0.034 0.033 0.040 0.053l-0.003 0.012c-0.007 0.006-0.014 0.015-0.021 0.020-0.058 0.037-0.080-0.075-0.098-0.098-0.007-0.008-0.016-0.014-0.026-0.017-0.027 0.015-0.017 0.038-0.032 0.053-0.019 0.006-0.019 0.006-0.039 0.009-0.005 0.004-0.010 0.008-0.014 0.013h-0.009l-0.005-0.008c0.002-0.009 0.010-0.024 0.007-0.033l-0.011-0.016c0.007-0.020 0.054-0.022 0.039-0.075-0.007-0.026-0.031-0.032-0.049-0.047-0.012-0.011-0.043-0.048-0.040-0.065 0.002-0.010 0.018-0.024 0.025-0.031 0.010-0.027-0.003-0.079-0.010-0.107-0.011-0.014-0.035-0.015-0.050-0.023-0.011-0.006-0.023-0.022-0.033-0.024l-0.008 0.005c-0.006 0.043 0.017 0.135-0.026 0.163-0.007 0.001-0.014-0-0.021-0.002-0.014-0.011-0.015-0.029-0.028-0.039s-0.035-0.014-0.050-0.023c-0.024-0.013-0.076-0.079-0.081-0.106-0.003-0.016 0.002-0.032 0.007-0.046-0.011-0.038-0.070-0.039-0.065-0.081l0.005-0.009c0.010-0.004 0.021-0.002 0.032-0.004 0.005 0.006 0.058 0.031 0.065 0.029 0.010-0.017 0.024-0.066 0.039-0.075 0.042-0.005 0.032-0.004 0.059-0.032 0.003 0 0.018-0.001 0.020 0 0.022 0.005 0.049 0.069 0.098 0.083 0.064 0.019 0.078-0.032 0.1-0.036l0.012 0.004c0.008 0.009 0.014 0.023 0.023 0.031 0.040 0.033 0.117-0.009 0.152 0.046 0.017 0.028 0.018 0.065 0.032 0.095 0.016 0.035 0.056 0.056 0.073 0.090 0.004 0.007 0.008 0.025 0.013 0.029 0.003 0.003 0.003 0.004 0.008 0.005l0.007 0.002c0.025-0.011 0.014-0.051 0.038-0.063 0.045-0.012 0.027 0.088 0.070 0.084 0.006-0.002 0.012-0.005 0.018-0.008l0.012 0.002c0.007 0.007 0.013 0.015 0.015 0.025 0.008 0.005 0.020 0.008 0.030 0.004 0.005-0.004 0.010-0.010 0.013-0.016 0.004-0.017-0.012-0.031-0.016-0.046-0.007-0.022 0.005-0.042-0.005-0.065-0.014-0.031-0.043-0.018-0.065-0.036-0.016-0.013-0.019-0.022-0.030-0.038l0.005-0.010c0.020-0.002 0.036 0.020 0.051 0.016 0.026-0.017 0.020-0.051 0.042-0.073h0.011c0.010 0.006 0.013 0.012 0.019 0.021s0.013 0.014 0.018 0.024c0.022 0.048-0.019 0.097-0.008 0.129l0.006 0.007 0.011-0.001c0.029-0.040 0.059-0.029 0.079-0.093 0.003-0.008 0.006-0.019 0.002-0.027-0.008-0.015-0.031-0.007-0.043-0.028-0.016-0.030-0.036-0.042-0.051-0.069-0.019-0.035-0.001-0.142 0.005-0.183l0.008-0.005c0.010-0.003 0.020 0.003 0.029 0.007 0.045 0.024 0.068 0.061 0.095 0.102 0.005 0.007 0.009 0.018 0.015 0.025 0.017 0.019 0.029 0.030 0.040 0.053 0.014 0.029 0.029 0.119 0.041 0.133 0.009 0.012 0.038 0.024 0.052 0.032 0.014 0.031-0 0.189 0.023 0.203 0.046 0.001 0.033-0.116 0.037-0.145 0.002-0.015 0.017-0.066 0.012-0.076-0.021-0.026-0.049-0.016-0.068-0.035-0.021-0.021 0.027-0.097 0.053-0.1 0.020 0.007 0.039 0.049 0.057 0.066 0.029 0.028 0.049 0.003 0.069 0.018 0.023 0.016 0.021 0.046 0.042 0.063 0.017 0.013 0.047 0.013 0.066 0.025 0.035 0.021 0.056 0.083 0.121 0.043 0.043-0.026 0.037-0.094 0.064-0.128 0.005-0.004 0.015-0.004 0.020-0.003 0.013 0.008 0.063 0.092 0.065 0.107s-0.005 0.020-0.008 0.032c-0.013 0.050 0.012 0.070-0.023 0.134-0.009 0.017-0.031 0.044-0.050 0.017-0.012-0.017-0.007-0.046-0.007-0.065-0-0.010-0.004-0.021-0.005-0.031l-0.010-0.004c-0.023 0.002-0.045 0.069-0.054 0.088l-0.009 0.004-0.009-0.003c-0.017-0.027 0.024-0.050 0.013-0.085l-0.008-0.006c-0.030-0.006-0.033 0.030-0.048 0.044-0.011 0.010-0.028 0.015-0.038 0.027-0.027 0.032-0.021 0.102 0 0.136 0.012 0.005 0.039 0.038 0.043 0.051l-0.006 0.017c-0.005 0.004-0.015 0.004-0.020 0.003-0.014-0.013-0.025-0.032-0.044-0.039l-0.010 0.001c-0.009 0.008-0.011 0.017-0.016 0.027-0.008 0.015-0.023 0.024-0.031 0.039-0.011 0.022-0.007 0.057 0.021 0.063 0.036 0.008 0.070-0.018 0.106-0.003 0.034 0.039-0.030 0.094-0.001 0.126l0.012 0.004c0.054-0.012 0.024-0.080 0.075-0.092 0.052 0.015 0.066 0.021 0.12 0.005 0.047-0.052 0.036-0.125 0.071-0.183 0.020-0.033 0.054-0.063 0.053-0.103-0-0.013-0.005-0.051-0.010-0.062-0.004-0.009-0.009-0.016-0.012-0.026-0.008-0.032-0.012-0.117-0.003-0.147l0.004-0.004c0.031-0.039 0.102-0.059 0.148-0.043 0.010 0.004 0.018 0.012 0.026 0.018 0.006 0.004 0.013 0.006 0.019 0.010 0.027 0.016 0.047 0.036 0.068 0.058 0.016 0.017 0.035 0.027 0.046 0.048 0.008 0.017 0.023 0.113 0.023 0.134-0.003 0.007-0.011 0.012-0.019 0.012-0.049 0-0.057-0.067-0.086-0.073-0.020-0.003-0.075 0.034-0.098 0.038-0.009 0.002-0.023 0.001-0.032 0.001-0.010 0.004-0.015 0.016-0.018 0.025 0.002 0.006 0.005 0.012 0.008 0.017 0.013 0.006 0.028 0.011 0.041 0.018 0.035 0.017 0.019 0.066 0.027 0.086 0.002 0.005 0.035 0.050 0.039 0.053 0.010 0.009 0.025 0.013 0.036 0.022 0.001 0.006 0.013 0.029 0.018 0.033l0.011 0.003c0.041-0.016 0.014-0.072 0.042-0.086l0.009 0.001c0.017 0.009 0.022 0.034 0.030 0.050 0.033 0.066 0.033 0.109 0.035 0.182 0.001 0.027-0.002 0.059 0.006 0.085 0.014 0.043 0.074 0.046 0.058 0.094-0.016 0.003-0.029 0.018-0.034 0.033-0.006 0.020 0.018 0.053 0.013 0.082-0.005 0.032-0.068 0.124-0.032 0.151 0.030 0.023 0.072-0.031 0.081-0.056 0.006-0.014 0.008-0.034 0.015-0.047 0.001-0.003 0.011-0.010 0.014-0.011 0.016-0.003 0.021 0.005 0.033 0.012 0.077 0.050 0.056 0.148 0.090 0.221 0.022 0.046 0.054 0.086 0.078 0.131 0.008 0.014 0.003 0.027 0.005 0.042 0.002 0.012 0.008 0.026 0.012 0.038 0.001 0.004 0.003 0.008 0.005 0.012 0.007 0.013 0.017 0.025 0.024 0.038 0.008 0.015 0.011 0.032 0.020 0.047 0.003 0.004 0.005 0.010 0.008 0.014 0.013 0.017 0.033 0.016 0.054 0.053 0.009 0.015 0.019 0.036 0.022 0.053 0.003 0.015-0.002 0.027 0.005 0.042 0.014 0.027 0.063 0.072 0.086 0.103 0.017 0.023 0.038 0.069 0.054 0.089l0.075 0.097c0.012 0.015 0.018 0.034 0.030 0.049 0.029 0.039 0.051 0.079 0.077 0.12 0.011 0.018 0.027 0.035 0.040 0.053 0.034 0.046 0.044 0.106 0.078 0.152 0.014 0.018 0.026 0.036 0.044 0.050 0.016 0.012 0.037 0.018 0.048 0.036s0.023 0.066 0.034 0.079c0.014 0.015 0.031 0.017 0.050 0.024 0.001 0.005 0.009 0.006 0.012 0.010 0.014 0.017 0.018 0.040 0.032 0.055 0.005 0.005 0.010 0.007 0.014 0.013 0.017 0.008 0.037 0 0.054 0.007 0.017 0.023 0.060 0.031 0.069 0.058 0.004 0.014-0 0.028-0.006 0.040-0.026 0.052-0.088 0.060-0.137 0.039-0.045-0.019-0.034-0.073-0.091-0.1-0.023-0.011-0.048-0.007-0.071-0.016-0.020-0.007-0.035-0.024-0.054-0.032-0.024-0.011-0.052-0.013-0.079-0.027-0.033-0.017-0.058-0.045-0.088-0.066-0.069-0.046-0.088 0.078-0.143 0.009-0.012-0.012-0.019-0.031-0.033-0.044-0.025-0.023-0.056-0.032-0.076-0.052-0.011-0.010-0.013-0.021-0.021-0.032 0.002-0.090-0.080-0.11-0.075-0.143 0.001-0.009 0.009-0.022 0.018-0.026s0.028-0.005 0.038-0.009c0.040-0.013 0.093-0.046 0.11-0.087 0.013-0.031-0.013-0.056-0.022-0.086-0.006-0.022 0.010-0.073-0.001-0.113-0.009-0.034-0.026-0.066-0.047-0.095-0.011-0.014-0.029-0.027-0.038-0.042-0.014-0.025 0.006-0.061-0.013-0.082-0.016-0.017-0.042-0.025-0.059-0.040-0.009-0.008-0.016-0.023-0.027-0.027-0.024-0.040-0.002-0.084-0.046-0.118-0.036-0.028-0.078 0.021-0.111 0.009-0.075-0.028-0.008-0.084-0.15-0.112l-0.002-0.011c0.021-0.028 0.075-0.052 0.074-0.089l-0.006-0.007c-0.028-0.008-0.042 0.029-0.062 0.039s-0.039 0.006-0.058 0.013c-0.008 0.003-0.015 0.013-0.025 0.014-0.027 0.002-0.061-0.042-0.103-0.040-0.019 0.001-0.036 0.014-0.054 0.018l-0.009-0.004c0.001-0.024 0.077-0.087 0.092-0.118 0.014-0.030-0.003-0.045-0.011-0.071-0.005-0.019-0.003-0.041-0.011-0.060-0.004-0.009-0.012-0.014-0.020-0.017-0.038-0.015-0.053 0.025-0.077 0.041-0.011 0.007-0.023 0.010-0.034 0.016-0.013 0.007-0.026 0.018-0.040 0.025-0.002 0.001-0.016 0.003-0.019 0.003z"></path>
<path d="M16.792 4.665c-0.002 0.018-0.013 0.039-0.033 0.039l-0.005-0.010c0.001-0.011 0.022-0.035 0.033-0.039l0.005 0.010z"></path>
<path d="M15.647 19.458c0.010 0.006 0.021 0.003 0.031 0.008 0.008 0.004 0.007 0.010 0.010 0.016 0.019 0.034 0.004 0.030-0.003 0.060-0.003 0.012-0.003 0.023-0.010 0.034-0.005 0.003-0.032 0.008-0.039 0.009l-0.009-0.006-0.002-0.010c-0.003-0.005-0.012-0.010-0.017-0.011-0.010-0.019 0-0.039-0.002-0.059 0.004-0.009 0.011-0.014 0.018-0.020 0.002-0.012 0.003-0.026 0.009-0.036 0.007 0.001 0.012 0.009 0.015 0.015z"></path>
<path d="M14.121 20.201c0.007 0.007 0.015 0.012 0.018 0.022 0.006 0.024-0.021 0.144-0.035 0.166-0.008 0.013-0.024 0.026-0.028 0.040-0.005 0.019-0.006 0.059-0.015 0.074s-0.025 0.018-0.036 0.029c-0.022 0.021-0.033 0.079-0.021 0.106 0.017 0.038 0.038 0.019 0.060 0.037l-0.003 0.012-0.007 0.005c-0.013 0.001-0.025-0.003-0.037-0.004-0.021-0.002-0.048-0.001-0.069 0-0.020-0.010-0.031-0.032-0.020-0.053s0.040-0.022 0.047-0.078c0.003-0.005 0.010-0.011 0.015-0.012 0.002-0.003 0.007-0.040 0.017-0.059 0.015-0.028 0.056-0.085 0.062-0.112 0.003-0.014 0.001-0.125-0.002-0.142-0.002-0.011-0.007-0.019-0.008-0.031-0.001-0.022 0.002-0.046-0.005-0.067-0.005-0.016-0.022-0.031-0.025-0.041 0-0.011 0.004-0.023 0.012-0.032 0.015-0.009 0.026 0.001 0.038 0.009 0.008 0.005 0.018 0.007 0.025 0.012 0.006 0.005 0.030 0.053 0.030 0.060 0.001 0.019-0.016 0.039-0.010 0.059z"></path>
<path d="M13.706 20.772c0.022 0.009 0.051-0.032 0.068-0.045 0.005-0.002 0.014-0.001 0.019 0.003 0.002 0.003 0.003 0.009 0.003 0.013-0.002 0.043-0.024 0.037-0.034 0.071-0.004 0.015-0.011 0.033-0.012 0.048s0.005 0.031 0.003 0.046c-0.002 0.012-0.011 0.019-0.022 0.023l-0.006 0.002c-0.033-0.010-0.099 0.009-0.126-0.007-0.012-0.012 0.009-0.078 0.004-0.099-0.001-0.004-0.004-0.008-0.005-0.012-0.006-0.013-0.014-0.027-0.019-0.041-0.003-0.009-0.005-0.020-0.009-0.029-0.007-0.016-0.021-0.031-0.006-0.049l0.011-0.001c0.018 0.008 0.030 0.094 0.060 0.095 0.003-0.015-0.007-0.034-0.008-0.050-0.002-0.030 0.001-0.087-0.002-0.11-0.002-0.015-0.014-0.031-0.018-0.046-0.011-0.047-0.022-0.141-0.005-0.186 0.014 0.003 0.014 0.012 0.019 0.021 0.005 0.008 0.013 0.014 0.018 0.021 0.019 0.027-0.002 0.082 0.010 0.113 0.006 0.017 0.032 0.045 0.034 0.057 0 0.003-0.001 0.009-0.001 0.012-0.001 0.028 0.003 0.053 0.004 0.081 0 0.012-0.003 0.027-0.001 0.038s0.013 0.024 0.020 0.032z"></path>
<path d="M12.941 20.313c0.009 0.008 0.021 0.018 0.024 0.031 0.009 0.038-0.008 0.119-0.001 0.158 0.003 0.014 0.018 0.048 0.012 0.059-0.006 0.002-0.011 0.005-0.016 0.008l0.001 0.008c0.011 0.007 0.042 0.026 0.044 0.039 0.001 0.008-0.005 0.020-0.004 0.026-0.006 0.018-0.001 0.041-0.008 0.059-0.003 0.007-0.008 0.008-0.009 0.018l0.004 0.010c0.010 0.003 0.015 0.012 0.021 0.019 0.031 0.042 0.036 0.098 0.023 0.148-0.005 0.019-0.019 0.030-0.021 0.051 0.004 0.006 0.004 0.012 0.006 0.018 0.009 0.025 0.022 0.051 0.023 0.079s-0.024 0.051-0.018 0.077l0.005 0.007c0.008-0.005 0.017-0.009 0.027-0.010 0.010 0.005 0.013 0.015 0.023 0.020 0.010 0 0.027 0 0.034 0.008 0.001 0.010 0.001 0.024 0.003 0.034 0.007 0.025 0.062 0.032 0.058 0.061l-0.006 0.007c-0.015 0.004-0.026-0.010-0.041-0.005l-0.002 0.009c0.004 0.021 0.026 0.024 0.024 0.053-0.007 0.014-0.020 0.026-0.030 0.038-0.045 0.055-0.060 0.014-0.113 0.006-0.023-0.004-0.045 0.005-0.068 0-0.009-0.006-0.009-0.017-0.018-0.022-0.017-0.009-0.051-0.006-0.060-0.025-0.003-0.009 0.001-0.014 0.002-0.023s-0.004-0.014-0.004-0.021c-0.001-0.026 0.019-0.066 0.050-0.059 0.002 0.010-0.002 0.024 0.005 0.032l0.008 0.003 0.008-0.005c0.004-0.010 0.011-0.018 0.013-0.028 0.012-0.010 0.043-0.032 0.046-0.047l-0.004-0.010c-0.015 0-0.030 0.001-0.044-0.005-0.010-0.005-0.059-0.058-0.063-0.069-0.008-0.023 0.012-0.058 0.013-0.082 0.001-0.020-0.013-0.042-0.012-0.063 0.001-0.018 0.017-0.037 0.017-0.056 0-0.016-0.012-0.036-0.014-0.054-0.005-0.051-0.007-0.179 0.002-0.227 0.013-0.067 0.051-0.050 0.054-0.1 0.001-0.018-0.015-0.029-0.019-0.045-0.003-0.013 0.001-0.025 0-0.038-0.002-0.019-0.039-0.043-0.046-0.060-0.023-0.064 0.008-0.119 0.002-0.18-0.002-0.014-0.011-0.036-0.008-0.050 0.001-0.006 0.003-0.012 0.009-0.016l0.010 0.002c0.014 0.015 0.032 0.099 0.040 0.123 0.005 0.015 0.019 0.027 0.021 0.044s-0.011 0.030-0.006 0.046z"></path>
<path d="M12.446 21.144c-0.018-0.016-0.012-0.046-0.026-0.065-0.008-0.010-0.032-0.017-0.042-0.026-0.009-0.008-0.014-0.022-0.022-0.031-0.007-0.007-0.017-0.011-0.025-0.017-0.028-0.023-0.028-0.077-0.002-0.101 0.004-0.004 0.004-0.008 0.007-0.012 0.007-0.009 0.029-0.024 0.041-0.023 0.023 0.008 0.034 0.047 0.069 0.028 0.026 0 0.023 0.026 0.044 0.035l0.008-0.004c0.006-0.012 0.004-0.025 0.007-0.038 0.005-0.019 0.020-0.027 0.023-0.047s-0.006-0.045-0.007-0.067c-0.001-0.027 0.002-0.157 0.012-0.175l0.008 0.002c0.011 0.055-0.002 0.113-0.002 0.167 0 0.026 0.013 0.047 0.017 0.071 0.003 0.021-0.002 0.041-0.001 0.062 0.002 0.045 0.017 0.191-0.009 0.222-0.011 0.014-0.028 0.011-0.044 0.013-0.013 0.002-0.046 0.010-0.055 0.004z"></path>
<path d="M16.094 17.979c0.008-0.006 0.023-0.006 0.032-0.004 0.039 0.012 0.022 0.060 0.012 0.086-0.005 0.012-0.005 0.024-0.009 0.036 0.010 0.035 0.043 0.019 0.058 0.040 0.012 0.017 0.019 0.044 0.026 0.063 0.018 0.050 0.049 0.043 0.068-0.001 0.012-0.027-0-0.038-0.002-0.062-0.001-0.017 0.008-0.084 0.019-0.097 0.020 0.020 0.024 0.083 0.028 0.11 0.002 0.013 0.009 0.025 0.012 0.039 0.003 0.021-0.003 0.078 0.006 0.091 0.006 0.009 0.038 0.027 0.048 0.034 0.019 0.014 0.032 0.026 0.058 0.028 0.021 0.027 0.027 0.022 0.043 0.039 0.020 0.020 0.034 0.083 0.029 0.11-0.005 0.021-0.026 0.039-0.019 0.064 0.007 0.007 0.012 0.017 0.019 0.023 0.013 0.011 0.031 0.018 0.043 0.030 0.014 0.012 0.017 0.035 0.030 0.049 0.019 0.022 0.091 0.056 0.093 0.083 0.001 0.012-0.015 0.053-0.022 0.064-0.009 0.014-0.024 0.026-0.033 0.041-0.015 0.025-0.060 0.080-0.092 0.076-0.034-0.030-0.022-0.071-0.043-0.11-0.011-0.020-0.069-0.085-0.072-0.1s0-0.031-0.002-0.046c-0.004-0.024-0.024-0.082-0.040-0.101s-0.031-0.013-0.048-0.023c-0.018-0.010-0.028-0.036-0.049-0.046-0.011-0.006-0.022-0.006-0.032-0.010-0.006-0.002-0.012-0.007-0.018-0.010-0.046-0.017-0.099-0.023-0.14-0.049-0.016-0.011-0.037-0.031-0.050-0.046-0.017-0.018-0.029-0.042-0.045-0.060s-0.035-0.037-0.051-0.056c-0.010-0.012-0.017-0.028-0.026-0.040-0.012-0.018-0.033-0.031-0.039-0.054-0.004-0.017 0.001-0.040 0.009-0.055 0.007-0.014 0.082-0.105 0.094-0.111 0.006-0.003 0.013-0.002 0.019-0.004 0.010-0.003 0.018-0.009 0.028-0.011 0.022-0.004 0.027 0.006 0.050-0.009l0.008 0.001z"></path>
<path d="M16.724 16.847c0.007 0.018 0.021 0.034 0.025 0.053 0.001 0.008-0 0.016 0 0.024 0.001 0.043 0.014 0.115 0.035 0.152 0.027 0.049 0.046 0.041 0.082 0.069 0.016 0.012 0.039 0.039 0.053 0.055 0.037 0.042 0.028 0.107 0.055 0.138 0.028 0.033 0.113 0.095 0.127 0.131-0.001 0.049-0.066 0.080-0.096 0.034-0.014-0.021-0.022-0.046-0.037-0.068-0.024-0.034-0.052-0.063-0.072-0.1s-0.027-0.082-0.058-0.111c-0.030-0.028-0.072-0.027-0.108-0.046-0.010-0.005-0.023-0.008-0.028-0.019l0.004-0.007c0.019-0.001 0.037 0.003 0.055 0.002l0.006-0.004c0.003-0.005 0.003-0.015 0.002-0.021-0.025-0.033-0.032-0.060-0.042-0.099-0.003-0.013-0.011-0.027-0.010-0.040 0.003-0.028 0.018-0.025 0.011-0.068-0.005-0.029-0.020-0.063-0.020-0.092l0.008-0.001c0.005 0.004 0.010 0.009 0.013 0.014l-0.001 0.005z"></path>
<path d="M16.923 16.81c0.001 0.013 0.025 0.13 0.030 0.144 0.002 0.007 0.010 0.019 0.015 0.025 0.014 0.015 0.034 0.021 0.048 0.035 0.020 0.020 0.037 0.046 0.060 0.063 0.027 0.021 0.054 0.035 0.074 0.064 0.025 0.035 0.022 0.088 0.039 0.127 0.009 0.020 0.036 0.020 0.047 0.060-0.012 0.037-0.019 0.028-0.022 0.078l-0.006 0.008c-0.020 0.007-0.057-0.003-0.070-0.020-0.009-0.013-0.007-0.043-0.008-0.058-0.003-0.062-0.026-0.108-0.044-0.165-0.005-0.015-0.010-0.032-0.018-0.046-0.016-0.028-0.098-0.065-0.125-0.097-0.011-0.013-0.012-0.030-0.020-0.045-0.034-0.060-0.027-0.052-0.029-0.121-0-0.016-0.007-0.055 0-0.068l0.011-0.001 0.008 0.004 0.004 0.010 0.006 0.004z"></path>
<path d="M17.923 16.464l0.009 0.003c0.015 0.018-0.009 0.047-0.009 0.066 0 0.021 0.030 0.062 0.048 0.071 0.013 0.006 0.033 0.009 0.047 0.013 0.037 0.047-0.001 0.113 0.015 0.166 0.007 0.024 0.039 0.040 0.037 0.068s-0.045 0.077-0.040 0.102c0.004 0.020 0.041 0.028 0.053 0.043l0.001 0.011c-0.008 0.014-0.024 0.022-0.036 0.031-0.031 0.055 0.013 0.076-0.017 0.129l-0.009 0.003c-0.008-0.003-0.018-0.011-0.023-0.019-0.014-0.026-0.021-0.056-0.035-0.082-0.002-0.004-0.006-0.010-0.006-0.015-0-0.003 0-0.009 0.001-0.012l0.007-0.003c0.014 0.002 0.038 0.001 0.047-0.012l0.003-0.011c-0.013-0.031-0.028-0.102-0.026-0.135 0.001-0.023 0.018-0.047 0.012-0.072-0.002-0.010-0.010-0.017-0.013-0.025-0.008-0.020-0.012-0.049-0.016-0.071-0.002-0.007-0.003-0.013-0.008-0.018-0.016-0.019-0.056-0.014-0.067-0.034-0.015-0.028-0.005-0.056-0.030-0.095-0.035-0.012-0.060-0.048-0.093-0.062-0.012-0.005-0.029-0.007-0.037-0.019-0.013-0.018 0.006-0.070-0.005-0.101-0.006-0.019-0.022-0.047-0.022-0.067s0.004-0.037 0.001-0.058c-0.004-0.027-0.019-0.051-0.024-0.077-0.003-0.016-0.001-0.037-0.007-0.053-0.003-0.006-0.008-0.011-0.010-0.018-0.011-0.033-0.013-0.075-0.012-0.11l0.006-0.004c0.007 0.009 0.033 0.071 0.036 0.083 0.002 0.007-0.001 0.016 0 0.023 0.002 0.015 0.017 0.029 0.022 0.044 0.005 0.016 0.003 0.034 0.008 0.049 0.005 0.017 0.016 0.032 0.019 0.050 0.003 0.016-0 0.031 0 0.046 0.002 0.068 0.013 0.128 0.072 0.17 0.011 0.008 0.022 0.021 0.037 0.025 0.021 0.005 0.047-0.013 0.068-0.018z"></path>
<path d="M21.753 21.119l-0.007 0.004c-0.012 0-0.022-0.006-0.034-0.005-0.020 0.014-0.004 0.061-0.025 0.074-0.012 0.007-0.030 0.001-0.041-0.006-0.017-0.012-0.078-0.099-0.076-0.119l0.005-0.008 0.009-0.003c0.028 0.009 0.036 0.036 0.062 0.002 0.006-0.008 0.015-0.013 0.019-0.023 0.016-0.008 0.034-0.002 0.048-0.011 0.012-0.007 0.014-0.021 0.025-0.029 0.006-0.004 0.011-0.004 0.018-0.006 0.013-0.004 0.034-0.009 0.045-0.016 0.008-0.005 0.014-0.011 0.023-0.015s0.018-0.005 0.027-0.009c0.024-0.010 0.060-0.047 0.082-0.061h0.011c0.003 0.013-0.011 0.039-0.016 0.052-0.006 0.015-0.019 0.047-0.029 0.058-0.032 0.034-0.094-0.004-0.132 0.033-0.027 0.027-0 0.066-0.014 0.088z"></path>
<path d="M22.822 21.453l0.005 0.009c0.001 0.006-0.002 0.016-0.006 0.020-0.020 0.016-0.064-0.023-0.093 0.020-0.005 0.007-0.007 0.018-0.005 0.026l0.005 0.008c0.016 0.008 0.037 0.009 0.050 0.023 0.043 0.047-0.037 0.103-0.087 0.091-0.016-0.004-0.034-0.016-0.048-0.024-0.048-0.029-0.047-0.056-0.082-0.092-0.011-0.012-0.021-0.014-0.034-0.022-0.007-0.005-0.015-0.014-0.021-0.020-0.001-0.007-0.001-0.016 0.002-0.023 0.012-0.020 0.059-0.012 0.079-0.011 0.007-0.007 0.016-0.010 0.023-0.016 0.017-0.015 0.023-0.038 0.050-0.042l0.002 0.010c-0.005 0.013-0.020 0.042-0.015 0.054 0.021 0.003 0.038-0.027 0.057-0.031 0.022-0.004 0.023 0.009 0.039 0.014s0.036-0.007 0.052-0.004c0.008 0.002 0.019 0.008 0.027 0.011z"></path>
<path d="M23.683 19.149c0.013 0.020-0.006 0.032-0.012 0.049-0.008 0.023-0.007 0.055-0.002 0.078 0.002 0.011 0.018 0.060 0.024 0.068 0.011 0.014 0.030 0.027 0.036 0.044 0.011 0.029 0.019 0.129-0.027 0.129-0.009 0-0.021-0.001-0.028-0.008-0.026-0.028 0.003-0.088-0.009-0.121-0.003-0.008-0.033-0.030-0.040-0.042-0.011-0.019-0.022-0.127-0.016-0.149 0.003-0.011 0.011-0.016 0.016-0.025 0.006-0.010 0.006-0.022 0.014-0.032 0.011-0.002 0.021-0.005 0.032-0.001 0.002 0.004 0.008 0.008 0.012 0.011z"></path>
<path d="M23.774 19.063c0.006 0.015 0.019 0.020 0.022 0.039 0.002 0.016-0.002 0.046-0.009 0.060-0.007 0.011-0.017 0.020-0.024 0.032-0.015 0.028-0.012 0.065 0.013 0.087 0.019 0.016 0.044 0.010 0.063 0.027 0.012 0.020-0.008 0.044-0.013 0.064s0.007 0.037 0.001 0.056c-0.001 0.004-0.009 0.013-0.012 0.016-0.013 0.005-0.028-0.002-0.036-0.012-0.016-0.021-0.076-0.218-0.071-0.241 0.002-0.013 0.029-0.030 0.033-0.053 0.003-0.022-0.012-0.056 0.005-0.078 0.009-0.004 0.022 0.001 0.031 0.003z"></path>
<path d="M25.132 18.911c0.015 0.027 0.014 0.083-0.016 0.1-0.039 0.003-0.029-0.074-0.021-0.095 0.005-0.004 0.011-0.008 0.017-0.010 0.007 0.001 0.014 0.003 0.020 0.006z"></path>
<path d="M27.313 20.906c0.002 0.008 0.017 0.045 0.021 0.054 0.008 0.019 0.038 0.039 0.016 0.062-0.057 0.019-0.078 0.128-0.152 0.106-0.015-0.010-0.022-0.061-0.020-0.078 0.002-0.002 0.005-0.006 0.006-0.008 0.007-0.006 0.019-0.006 0.027-0.009 0.003-0.001 0.069-0.047 0.069-0.047 0.020-0.028-0.005-0.057-0.001-0.085l0.005-0.009h0.011l0.018 0.013z"></path>
<path d="M26.303 17.155c-0.033 0.068 0.054 0.124 0.055 0.173 0.001 0.026-0.027 0.053-0.029 0.090-0.002 0.035 0.029 0.060 0.030 0.094 0 0.015-0.008 0.034-0.011 0.049 0.012 0.030 0.013 0.025 0.033 0.047 0.004 0.005 0.004 0.010 0.012 0.015 0.002 0.011 0.010 0.017 0.010 0.029 0.001 0.020-0.014 0.040-0.005 0.060 0.007 0.014 0.042 0.023 0.057 0.032 0.013 0.007 0.013 0.021 0.026 0.028s0.040 0.012 0.053 0.005c0.038-0.021 0.042-0.087 0.064-0.094l0.006 0.004c-0.005 0.032-0.017 0.063-0.034 0.089-0.016 0.025-0.059 0.026-0.080 0.049s-0.045 0.065-0.061 0.093c-0.006 0.010-0.010 0.023-0.016 0.033-0.008 0.013-0.023 0.024-0.033 0.036l-0.010 0.002-0.009-0.003c-0.015-0.022 0.017-0.055 0.003-0.079-0.018-0.030-0.067-0.073-0.081-0.096-0.015-0.025 0.002-0.051-0.002-0.077-0.001-0.008-0.020-0.031-0.025-0.040-0.003-0.006-0.027-0.098-0.027-0.107-0.002-0.021 0.016-0.040 0.011-0.055-0.009-0.008-0.020-0.019-0.025-0.030-0.008-0.017-0.009-0.081-0.004-0.099 0.004-0.017 0.024-0.035 0.022-0.051-0.010-0.020-0.031-0.035-0.038-0.054-0.001-0.004-0.003-0.017-0.002-0.021 0.003-0.034 0.010-0.040 0.008-0.081-0-0.005 0.001-0.012 0.003-0.017 0.003-0.006 0.021-0.023 0.026-0.028 0.010-0.002 0.021 0.002 0.030-0.002 0.011-0.005 0.021-0.015 0.033-0.019l0.009 0.001 0.004 0.010-0.003 0.010 0.002 0.004z"></path>
<path d="M16.765 3.62l0.013 0.004c0.025-0.006 0.048-0.054 0.074-0.053 0.016 0.018 0.009 0.060 0.001 0.081-0.005 0.013-0.017 0.026-0.020 0.039-0.001 0.006-0.001 0.017 0.002 0.024-0.002 0.010-0.020 0.022-0.027 0.030-0.001 0.010 0.005 0.020 0.010 0.029 0 0.009-0.003 0.017-0.003 0.026-0.001 0.012 0.004 0.024 0.006 0.036 0 0.005 0.001 0.007 0 0.012l-0.002 0.009c-0.003 0.018-0.024 0.055-0.022 0.067l0.006 0.008c0.017-0.001 0.018-0.016 0.041-0.009 0.018 0.021 0.027 0.066 0.020 0.093-0.003 0.013-0.013 0.029-0.020 0.040-0.023 0.040-0.058 0.113-0.071 0.156-0.007 0.025-0.002 0.036-0.002 0.060 0 0.021-0.004 0.043-0.006 0.064-0.003 0.025-0.019 0.059 0.001 0.081l0.013 0.001c0.009-0.006 0.017-0.014 0.022-0.023l0.009-0.004 0.009 0.005 0.004 0.010c-0.003 0.043-0.059 0.077-0.067 0.124 0.010 0.024 0.045 0.025 0.065 0.039 0.015 0.025 0.008 0.050 0.009 0.077s0.001 0.061-0.009 0.088c-0.012 0.033-0.055 0.061-0.089 0.065-0.005 0.005-0.009 0.010-0.013 0.016v0.011c0.017 0.010 0.052 0.021 0.062 0.029l0.001 0.011c-0.006 0.018-0.040 0.018-0.058 0.057-0.003 0.030 0.043 0.072 0.032 0.109-0.005 0.008-0.025 0.014-0.034 0.020-0.018 0.034-0.038 0.148-0.036 0.187 0 0.010 0.024 0.094 0.029 0.1 0.011 0.024 0.015 0.046 0.019 0.077l-0.006 0.009c-0.008 0.001-0.017 0-0.025-0.002-0.009-0.033-0.049-0.028-0.074-0.045-0.018-0.061-0.036-0.038-0.055-0.069-0.006-0.009-0.006-0.018-0.016-0.025-0.011-0.007-0.028-0.012-0.039-0.021-0.004-0.004-0.042-0.059-0.044-0.065-0.008-0.019 0.003-0.041 0.001-0.060-0.004-0.056-0.059-0.102-0.046-0.159 0.041-0.049 0.009-0.051 0.014-0.092 0.003-0.029 0.027-0.12 0.040-0.145 0.009-0.016 0.020-0.030 0.027-0.047 0.012-0.028 0.012-0.055 0.022-0.082 0.005-0.013 0.017-0.020 0.023-0.032 0.003-0.021-0.013-0.047-0.012-0.071l0.023 0.004c0.027-0.019-0.021-0.111-0.019-0.133 0.002-0.015 0.024-0.034 0.015-0.050-0.008-0.008-0.018-0.015-0.029-0.017-0.022-0.024 0-0.077-0.023-0.116-0.025-0.042-0.068-0.014-0.102-0.025-0.009-0.003-0.025-0.019-0.035-0.024-0.056-0.029-0.077-0.026-0.125 0.010-0.022-0.001-0.072-0.003-0.075-0.032-0.001-0.006-0.001-0.012 0.003-0.016l0.008-0.006c0.109 0.004 0.083-0.043 0.121-0.053 0.023 0.005 0.076 0.046 0.095 0.035 0.006-0.003 0.010-0.013 0.010-0.019-0.008-0.014-0.021-0.041-0.014-0.057 0.013-0.005 0.081 0.024 0.105-0.004l0.002-0.011c-0.006-0.012-0.019-0.021-0.023-0.032l0.002-0.011c0.024-0.013 0.013-0.041 0.015-0.063 0.004-0.003 0.013-0.009 0.018-0.011s0.077-0.010 0.081-0.010c0.009 0.001 0.020 0.006 0.029 0.005 0.002-0 0.009-0.003 0.011-0.004l0.006-0.009c0-0.015 0.005-0.047 0.002-0.060-0.006-0.021-0.052-0.025-0.067-0.050-0.005-0.017 0.011-0.041 0.014-0.058 0.008-0.004 0.022-0.004 0.030-0.004 0.016-0.010 0.005-0.044 0.012-0.058 0.014-0.028 0.070-0.074 0.102-0.055 0.015 0.009 0.016 0.033 0.027 0.045z"></path>
<path d="M25.857 13.635c-0.013-0.004-0.027-0.009-0.040-0.010-0.026-0.002-0.050 0.043-0.050 0.064l0.007 0.029c0.006 0.013 0.018 0.029 0.027 0.040 0.049 0.060 0.090 0.122 0.095 0.202 0.002 0.027 0.002 0.057-0.004 0.083-0.009 0.036-0.032 0.061-0.043 0.094-0.010 0.030-0.018 0.061-0.026 0.092-0.003 0.011-0.009 0.040-0.015 0.048-0.016 0.023-0.050 0.029-0.069 0.051-0.009 0.010-0.015 0.026-0.021 0.039-0.029 0.056-0.049 0.119-0.109 0.15-0.040 0.021-0.123 0.018-0.169 0.020-0.014 0.001-0.029 0.005-0.044 0.004-0.031-0.001-0.048-0.030-0.076-0.039s-0.056-0.006-0.084-0.007c-0.016-0.001-0.032-0.009-0.048-0.011-0.026-0.002-0.053 0.004-0.078 0.003s-0.036-0.024-0.057-0.032c-0.024-0.010-0.048-0.004-0.071-0.013-0.066-0.027-0.071-0.084-0.152-0.093-0.045-0.005-0.075 0.027-0.116 0.032-0.022 0.003-0.045 0.005-0.067 0.003-0.015-0.002-0.033-0.007-0.048-0.005-0.019 0.002-0.058 0.004-0.061 0.028 0.010 0.022 0.035 0.031 0.041 0.054 0.013 0.055-0.076 0.019-0.102 0.046-0.004 0.004-0.028 0.048-0.032 0.056-0.009 0.006-0.023 0.004-0.032 0-0.021-0.020-0.027-0.051-0.049-0.071-0.013-0.012-0.052-0.015-0.071-0.023-0.016-0.007-0.029-0.026-0.041-0.030-0.001-0-0.011-0.001-0.012-0.001-0.019 0.002-0.023 0.024-0.039 0.030-0.012-0.001-0.017-0.008-0.023-0.017-0.024-0.037 0.011-0.056 0.009-0.084-0.001-0.006-0.007-0.013-0.012-0.016-0.015-0.004-0.036 0.008-0.070-0.003-0.010 0-0.019 0.009-0.023 0.018 0.003 0.043 0.055 0.059 0.065 0.095 0.006 0.022 0.003 0.057-0.018 0.071-0.009 0.006-0.016 0.006-0.024 0.016-0.017 0.020-0.017 0.078-0.062 0.063-0.004-0.001-0.027-0.020-0.033-0.024-0.028-0.008-0.036 0.032-0.064 0.024-0.031-0.009-0.050-0.103-0.090-0.138-0.014-0.012-0.033-0.018-0.051-0.023-0.049-0.012-0.077 0.001-0.113 0.035-0.008 0.007-0.012 0.016-0.020 0.023-0.018 0.015-0.044 0.013-0.064 0.024-0.015 0.008-0.026 0.030-0.043 0.040l-0.012-0.004c-0.019-0.019-0.019-0.050-0.039-0.067l-0.011-0.003c-0.022 0.018-0.006 0.081-0.008 0.108-0.003 0.030-0.021 0.043-0.004 0.076 0.005 0.010 0.014 0.024 0.021 0.033 0.012 0.014 0.043 0.031 0.043 0.052l-0.005 0.010c-0.013 0.014-0.047 0.001-0.068 0.018-0.012 0.040 0.136 0.142 0.141 0.24 0.001 0.011 0 0.025-0.008 0.033-0.017 0.017-0.041 0.002-0.061 0.008l-0.007 0.007c-0.003 0.026 0.055 0.074 0.048 0.119-0.005 0.036-0.080 0.14-0.102 0.176-0.015 0.025-0.022 0.057-0.038 0.081-0.013 0.005-0.029-0.006-0.046 0.002-0.020 0.009-0.027 0.046-0.038 0.064-0.005 0.008-0.014 0.013-0.022 0.019-0.019 0.016-0.041 0.029-0.061 0.046-0.010 0.008-0.015 0.022-0.027 0.029-0.003 0.002-0.015 0.005-0.019 0.005-0.019 0-0.053-0.013-0.076-0.016-0.006 0.003-0.012 0.006-0.017 0.010l0.001 0.010 0.006 0.009c0.024 0.016 0.067 0.001 0.075 0.050 0.011 0.069-0.051 0.139-0.084 0.193-0.007 0.012-0.015 0.025-0.023 0.036-0.012 0.015-0.027 0.029-0.039 0.045-0.030 0.039-0.051 0.109-0.113 0.122l-0.007-0.004c-0.018-0.024 0.028-0.086 0.015-0.116l-0.010-0.005c-0.020 0.009-0.047 0.075-0.050 0.096-0.003 0.020 0.006 0.051-0.009 0.067-0.038 0.016-0.079-0.012-0.095-0.011-0.005 0.002-0.011 0.008-0.013 0.013-0.006 0.032 0.022 0.040 0.043 0.053 0.013 0.008 0.020 0.020 0.037 0.019 0.012-0.001 0.024-0.010 0.037-0.011l0.010 0.004c0.033 0.034-0.029 0.068-0.040 0.081-0.007 0.009-0.018 0.025-0.023 0.035-0.027 0.060 0.011 0.14-0.003 0.173-0.010 0.024-0.033 0.016-0.051 0.027-0.018 0.018 0.003 0.071-0.019 0.099-0.011 0.015-0.034 0.023-0.052 0.023-0.080-0.003-0.079-0.032-0.133-0.073-0.009-0.007-0.019-0.005-0.030-0.008l-0.007 0.003c-0.007 0.023-0.001 0.049-0.010 0.072-0.001 0.001-0.092 0.032-0.109 0.041-0.042 0.025-0.061 0.093-0.099 0.124-0.031 0.026-0.065 0.039-0.101 0.057l0.030 0.066c0.015-0.003 0.088-0.030 0.099-0.039 0.012-0.010 0.021-0.025 0.034-0.035s0.025-0.014 0.037-0.028c0.022-0.025 0.032-0.061 0.063-0.077 0.013-0.007 0.032-0.014 0.047-0.016 0.028-0.003 0.053 0.003 0.081 0.003 0.038 0.001 0.077-0.002 0.114 0.002 0.020 0.002 0.063 0.009 0.081 0.005 0.053-0.012 0.058-0.069 0.096-0.097 0.021-0.015 0.069-0.016 0.093-0.012 0.008 0.001 0.016 0.005 0.024 0.004l0.008-0.005 0.005-0.010c-0.007-0.040-0.059-0.059-0.096-0.051-0.011 0.002-0.018 0.007-0.030 0.007l-0.008-0.006c0.004-0.023 0.015-0.039 0.028-0.058 0.006-0.009 0.010-0.018 0.019-0.025 0.068-0.051 0.216-0.027 0.246-0.053-0.012-0.057-0.142-0-0.181-0.018l-0.012-0.015c-0.001-0.014-0.005-0.028-0.005-0.043 0.001-0.045 0.017-0.125 0.046-0.16 0.015-0.019 0.037-0.036 0.056-0.052 0.013-0.011 0.022-0.023 0.036-0.033 0.020-0.016 0.053-0.058 0.073-0.079 0.015-0.015 0.050-0.028 0.061-0.046 0.025-0.039 0.014-0.105 0.034-0.147 0.025-0.054 0.085-0.045 0.103-0.069s0.019-0.057 0.037-0.082c0.011-0.016 0.028-0.029 0.040-0.044s0.023-0.035 0.036-0.050c0.026-0.030 0.054-0.059 0.076-0.092 0.036-0.051 0.030-0.106 0.044-0.163 0.007-0.027 0.019-0.054 0.029-0.080 0.009-0.022 0.013-0.039 0.033-0.055 0.056-0.045 0.196-0.004 0.254 0.024 0.026 0.012 0.046 0.038 0.076 0.041l0.007-0.006 0.004-0.012c-0.016-0.041-0.088-0.067-0.096-0.097-0.009-0.034 0.083-0.074 0.044-0.105l-0.012-0.001c-0.019 0.010-0.051 0.060-0.078 0.073-0.092 0.043-0.125-0.003-0.194 0.003-0.009 0.007-0.020 0.022-0.032 0.022l-0.005-0.008c0.001-0.041-0.006-0.142 0.012-0.174 0.032-0.055 0.097-0.020 0.143-0.025 0.020-0.002 0.052-0.018 0.070-0.015 0.012 0.002 0.018 0.012 0.028 0.017 0.009 0.004 0.059 0.008 0.069 0.007 0.040-0.005 0.080-0.017 0.114-0.036 0.034 0.002 0.024 0.011 0.042 0.028l0.011 0.003c0.019-0.007 0.032-0.019 0.047-0.032 0.029-0.025 0.057-0.039 0.078-0.074 0.022-0.036 0.019-0.080 0.052-0.112 0.050-0.048 0.124 0.005 0.199-0.008 0.048-0.009 0.061-0.017 0.092-0.052 0.007-0.008 0.010-0.017 0.019-0.024 0.016-0.013 0.031-0.008 0.049-0.011 0.022-0.005 0.055-0.030 0.076-0.040 0.018-0.008 0.037-0.013 0.056-0.018 0.009-0.002 0.020-0.008 0.029-0.008 0.037 0.001 0.083 0.063 0.117 0.074 0.039 0.013 0.072-0.002 0.119 0.023 0.039 0.021 0.044 0.061 0.069 0.092 0.020 0.026 0.055 0.057 0.084 0.074 0.011 0.007 0.026 0.014 0.035 0.023 0.007 0.007 0.016 0.014 0.022 0.021 0.021 0.026 0.038 0.075 0.065 0.094 0.019 0.013 0.043 0.017 0.062 0.028 0.030 0.016 0.035 0.028 0.073 0.026 0.036-0.001 0.082-0.019 0.11-0.042 0.014-0.011 0.027-0.030 0.044-0.038 0.019-0.009 0.043 0.003 0.065-0.004 0.020-0.014 0.002-0.065 0.031-0.082 0.003-0.002 0.006-0.002 0.009-0.004 0.038-0.020 0.062 0.002 0.1 0.006 0.030 0.003 0.071 0.005 0.101 0.001 0.018-0.002 0.053-0.009 0.068-0.018 0.018-0.010 0.030-0.024 0.051-0.029 0.039 0.003 0.055 0.116 0.108 0.079 0.003-0.016-0.036-0.072-0.037-0.102-0.002-0.064 0.066-0.067 0.085-0.095 0.022-0.032 0.003-0.081 0.003-0.117 0-0.021 0.004-0.037 0.001-0.058-0.007-0.039-0.073-0.058-0.093-0.099-0.021-0.043 0.006-0.090-0.016-0.138-0.011-0.023-0.037-0.038-0.052-0.059-0.011-0.015-0.069-0.1-0.075-0.112-0.025-0.054 0.012-0.077-0.005-0.117-0.009-0.021-0.032-0.035-0.039-0.055-0.010-0.027-0.012-0.070-0.028-0.095-0.014-0.022-0.035-0.035-0.050-0.055-0.028-0.035-0.044-0.093-0.054-0.137zM25.916 13.82l-0.006 0.009c-0.028 0.013-0.050-0.037-0.062-0.053-0.017-0.022-0.068-0.073-0.045-0.104 0.005-0.004 0.013-0.006 0.019-0.006 0.007 0.007 0.016 0.012 0.022 0.020 0.022 0.029 0.028 0.065 0.050 0.094 0.008 0.010 0.025 0.027 0.023 0.041z"></path>
<path d="M18.565 7.663l0.006-0.001c0.018 0.011 0.010 0.036 0.009 0.053-0.002 0.021-0.014 0.082-0.012 0.096 0.006 0.037 0.032 0.054 0.053 0.081 0.011 0.015 0.025 0.031 0.034 0.047 0.011 0.018 0.014 0.036 0.028 0.053 0.029 0.035 0.105 0.075 0.142 0.103 0.013 0.010 0.025 0.023 0.037 0.034 0.027 0.023 0.020 0.057 0.034 0.072-0.001 0.002 0.007 0.011 0.011 0.015 0.034 0.045 0.057 0.033 0.102 0.048 0.027 0.009 0.054 0.021 0.082 0.026 0.048 0.009 0.065-0.020 0.116 0.006 0.040 0.021 0.108 0.213 0.154 0.232 0.036 0.015 0.067 0.004 0.102-0.003 0.033-0.007 0.074-0.002 0.096-0.034 0.020-0.029 0.003-0.086 0.047-0.102 0.007-0.002 0.029 0.001 0.035 0.004 0.011 0.005 0.086 0.063 0.099 0.074 0.010 0.008 0.019 0.021 0.026 0.032s0.003 0.009 0.005 0.019c0.005 0.028 0.032 0.073 0.034 0.084 0.008 0.006 0.016 0.013 0.022 0.021 0.012 0.002 0.025 0.005 0.037 0.007 0.023 0.005 0.033 0.017 0.061 0.019 0.007 0 0.014 0.002 0.021 0.005 0.018 0.010 0.024 0.025 0.047 0.026 0.011 0.001 0.024-0.003 0.035-0.003 0.024 0.002 0.048 0.011 0.073 0.005 0.045-0.011 0.031-0.054 0.124-0.018 0.046 0.018 0.087 0.083 0.128 0.114 0.016 0.012 0.035 0.023 0.050 0.036 0.018 0.015 0.035 0.032 0.054 0.046 0.009 0.007 0.015 0.017 0.023 0.024 0.031 0.031 0.062 0.061 0.101 0.082 0.017 0.009 0.037 0.014 0.055 0.021 0.031 0.012 0.063 0.027 0.091 0.046 0.009 0.006 0.018 0.014 0.028 0.017 0.033 0.007 0.045-0.042 0.072-0.027 0.010 0.010 0.009 0.036 0.016 0.048 0.011 0.019 0.029 0.029 0.047 0.039 0.006 0.003 0.010 0.010 0.016 0.013 0.031 0.020 0.068 0.030 0.105 0.032 0.043 0.003 0.162-0.005 0.133-0.074-0.022-0.052-0.070-0.041-0.11-0.067-0.048-0.031-0.018-0.073-0.036-0.105-0.021-0.037-0.101-0.059-0.113-0.1 0.001-0.010 0.033-0.064 0.040-0.080 0.012-0.031 0.027-0.075 0.033-0.108 0.004-0.025 0.001-0.051 0.009-0.076 0.003-0.009 0.007-0.019 0.014-0.025 0.010-0.009 0.056-0.014 0.071-0.018 0.014-0.004 0.037-0.019 0.051-0.018 0.004 0.003 0.010 0.010 0.012 0.015 0.005 0.012 0.004 0.029 0.010 0.041 0.009 0.021 0.022 0.040 0.030 0.061l-0.001 0.004c-0.005 0.022-0.019 0.019-0.032 0.033-0.021 0.023-0.050 0.092-0.061 0.122l0.009 0.005c0.024 0 0.046-0.006 0.070-0.003 0.018 0.002 0.034 0.010 0.052 0.013 0.009 0.002 0.017 0.001 0.025 0.004 0.024 0.011 0.054 0.065 0.088 0.081 0.013 0.007 0.027 0.007 0.040 0.012 0.016 0.006 0.036 0.010 0.040 0.029-0.001 0.035-0.099 0.072-0.054 0.105 0.030 0.007 0.076-0.028 0.104-0.020 0.052 0.014 0.036 0.083 0.044 0.117 0.002 0.009 0.009 0.018 0.012 0.027 0.004 0.014 0.006 0.026 0.009 0.040 0.001 0.003 0.001 0.008 0.002 0.010 0.017 0.038 0.067 0.041 0.090 0.057 0.018 0.012 0.029 0.027 0.049 0.038 0.002 0.001 0.007 0.003 0.009 0.005 0.005 0.004 0.009 0.010 0.015 0.014 0.009 0.028 0.026 0.055 0.035 0.082 0.005 0.016 0.003 0.033 0.008 0.048 0.003 0.007 0.006 0.014 0.011 0.021 0.012 0.017 0.049 0.059 0.065 0.070 0.010 0.007 0.022 0.009 0.033 0.013 0.027 0.011 0.050 0.038 0.066 0.061 0.013 0.019 0.010 0.029 0.016 0.048 0.011 0.034 0.030 0.078 0.053 0.105 0.027 0.032 0.073 0.031 0.093 0.067 0.026 0.049-0.007 0.076 0.048 0.12 0.012 0.010 0.032 0.008 0.047 0.010 0.033 0.003 0.066 0.008 0.099 0.007 0.054-0.002 0.093-0.022 0.149-0.005 0.007 0.002 0.014 0.007 0.021 0.010 0.012 0.005 0.027 0.005 0.039 0.010 0.026 0.009 0.119 0.104 0.159 0.127 0.010 0.005 0.045 0.021 0.055 0.022 0.006 0.001 0.014-0.004 0.020-0.004 0.017-0.002 0.072 0.006 0.088 0.012 0.023 0.008 0.044 0.028 0.066 0.039 0.011 0.005 0.025 0.006 0.036 0.011 0.016 0.008 0.045 0.050 0.077 0.066 0.025 0.012 0.041 0.002 0.062 0.009 0.034 0.034 0.037 0.083 0.089 0.103 0.031 0.012 0.064-0.009 0.093-0.015 0.020-0.004 0.067 0.008 0.086 0.016 0.067 0.026 0.066 0.034 0.117 0.074 0.015 0.012 0.024 0.031 0.042 0.041 0.011 0.006 0.024 0.005 0.036 0.012 0.015 0.009 0.027 0.024 0.041 0.032s0.034 0.007 0.049 0.014c0.028 0.013 0.040 0.038 0.078 0.042 0.025 0.026 0.116-0.045 0.145-0.053 0.009-0.013 0.012-0.028 0.020-0.040 0.013-0.019 0.046-0.035 0.068-0.038l0.008 0.006c0.008 0.010 0.002 0.028-0.001 0.039-0.009 0.029-0.021 0.066-0.043 0.087-0.019 0.018-0.083 0.042-0.070 0.093 0.014 0.010 0.039 0.027 0.054 0.035 0.049 0.025 0.122-0.033 0.162-0.016l0.005 0.008c-0 0.046-0.072 0.026-0.085 0.061l0.008 0.008c0.025 0.011 0.084-0.024 0.113-0.020 0.052 0.008 0.033 0.075 0.043 0.111 0.005 0.021 0.018 0.034 0.027 0.052 0.007 0.002 0.012 0.007 0.019 0.011 0.012 0.006 0.025 0.006 0.037 0.010 0.022 0.009 0.108 0.071 0.13 0.089 0.014 0.012 0.021 0.028 0.034 0.039 0.019 0.015 0.045 0.022 0.062 0.037 0.023 0.020 0.031 0.041 0.062 0.064 0.024 0.017 0.050 0.034 0.079 0.041 0.015 0.004 0.035 0.004 0.049 0.012 0.032 0.018 0.054 0.095 0.084 0.12 0.051 0.042 0.095 0.010 0.147 0.078 0.030 0.039-0.005 0.057-0.003 0.084 0.008 0.012 0.011 0.020 0.027 0.025 0.017 0.005 0.034 0.009 0.050 0.013s0.034 0.001 0.051 0.006c0.019 0.006 0.036 0.026 0.058 0.032 0.016 0.005 0.044 0.010 0.057 0.021 0.040 0.032 0.070 0.073 0.121 0.090l-0.025 0.041c-0.031-0.016-0.065-0.024-0.096-0.041-0.015-0.008-0.032-0.017-0.046-0.027-0.007-0.005-0.016-0.016-0.024-0.020-0.037-0.018-0.113-0.029-0.155-0.041-0.034-0.009-0.071-0.031-0.103-0.039-0.012-0.003-0.028-0.007-0.040-0.008-0.029-0.003-0.053 0.007-0.083-0.007-0.032-0.015-0.008-0.096-0.041-0.134-0.027-0.031-0.137-0.015-0.18-0.050-0.048-0.039-0.009-0.076-0.046-0.12-0.009-0.010-0.021-0.017-0.030-0.026-0.007-0.007-0.012-0.015-0.019-0.023-0.002-0.002-0.005-0.006-0.006-0.008-0.009-0.007-0.126 0.003-0.204-0.052-0.045-0.031-0.045-0.125-0.117-0.177-0.008-0.006-0.035-0.014-0.046-0.012-0.041 0.007-0.102 0.064-0.144 0.011-0.001-0.011-0.006-0.024-0.009-0.035-0.014-0.060-0.025-0.050-0.072-0.084-0.009-0.006-0.025-0.020-0.036-0.022-0.031 0.024-0.030 0.052-0.050 0.083-0.004 0.006-0.009 0.011-0.012 0.018-0.006 0.002-0.011 0.006-0.016 0.011-0.007-0.002-0.015-0.005-0.021-0.010-0.003-0.010-0.009-0.019-0.010-0.029-0.002-0.018-0.004-0.034-0.010-0.051-0.004-0.012-0.015-0.022-0.020-0.033-0.014-0.034 0.016-0.081-0.011-0.109-0.015-0.015-0.038-0.019-0.055-0.029-0.021-0.012-0.040-0.032-0.062-0.041-0.012-0.005-0.038-0.012-0.050-0.011-0.035 0.001-0.108 0.038-0.133 0.008-0.005-0.021 0.004-0.038 0.001-0.059-0.009-0.014-0.019-0.026-0.032-0.037s-0.093-0.056-0.108-0.057c-0.031 0.004-0.034 0.096-0.043 0.123l-0.008 0.007-0.010 0.002-0.010-0.005c-0.003-0.010-0.003-0.022-0.001-0.032-0.004-0.006-0.004-0.012-0.006-0.018-0.018-0.042-0.044-0.073-0.085-0.095-0.018-0.010-0.039-0.009-0.054-0.024-0.008-0.008-0.023-0.066-0.032-0.083-0.003-0.005-0.008-0.011-0.011-0.016l0.006 0.009c-0.021-0.028-0.030-0.079-0.056-0.1-0.035-0.028-0.060 0.010-0.106-0.029-0.025-0.021-0.041-0.052-0.064-0.074-0.029-0.028-0.144-0.1-0.181-0.114-0.028-0.011-0.069-0.020-0.099-0.018-0.043 0.002-0.085 0.008-0.128 0.003-0.017-0.002-0.034-0.002-0.050-0.004-0.058-0.008-0.081-0.020-0.117 0.037-0.091 0.144 0.046 0.181 0.023 0.262-0.007-0.001-0.015-0.003-0.022-0.006-0.014-0.018-0.029-0.036-0.040-0.056-0.008-0.014-0.011-0.031-0.022-0.043-0.030-0.032-0.087-0.006-0.119 0.010-0.011 0.006-0.021 0.016-0.032 0.022-0.043 0.023-0.125 0.060-0.173 0.056l0.001-0.004c0.051-0.041 0.119-0.058 0.177-0.088 0.020-0.010 0.035-0.031 0.055-0.040 0.015-0.020-0.002-0.052-0.005-0.074-0.003-0.019 0.004-0.038 0.005-0.057 0.001-0.029-0.018-0.053-0.048-0.054-0.028-0.001-0.047 0.018-0.078 0.003-0.024-0.011-0.030-0.041-0.062-0.036-0.051 0.008-0.034 0.047-0.098 0.065-0.010 0.003-0.020 0.007-0.031 0.006-0.058-0.004-0.065-0.079-0.137-0.081-0.014-0.001-0.019 0.003-0.031 0.007-0.016 0.005-0.035 0.006-0.050 0.014-0.034 0.019-0.050 0.050-0.094 0.025-0.030-0.017-0.004-0.051-0.015-0.071-0.015-0.027-0.050-0.046-0.071-0.070s-0.036-0.075-0.053-0.106c-0.014-0.027-0.029-0.023-0.049-0.039-0.029-0.022-0.046-0.057-0.074-0.079-0.033-0.025-0.062-0.033-0.095-0.054-0.018-0.011-0.030-0.027-0.050-0.036-0.017-0.008-0.036-0.014-0.052-0.025-0.018-0.012-0.024-0.038-0.047-0.050-0.030-0.016-0.088-0.017-0.13-0.042-0.028-0.016-0.063-0.060-0.084-0.085-0.002-0.003-0.066-0.060-0.067-0.060-0.033-0.018-0.080-0.045-0.112-0.060-0.021-0.010-0.065-0.012-0.089-0.015-0.049-0.007-0.097-0.030-0.139-0.055-0.015-0.009-0.046-0.054-0.060-0.069s-0.033-0.024-0.047-0.037c-0.014-0.013-0.025-0.028-0.039-0.041-0.008-0.008-0.020-0.013-0.028-0.021-0.019-0.018-0.036-0.040-0.058-0.054-0.042-0.026-0.080 0.017-0.117-0.023s-0.029-0.126-0.093-0.173c-0.037-0.028-0.063-0.007-0.093-0.021-0.042-0.019-0.053-0.084-0.098-0.098-0.037-0.012-0.103 0.015-0.157-0.016-0.058-0.033-0.123-0.196-0.153-0.214-0.066-0.040-0.139-0.009-0.202-0.046-0.046-0.028-0.091-0.121-0.126-0.164-0.040-0.048-0.136-0.092-0.173-0.141-0.024-0.032-0.038-0.069-0.058-0.102-0.013-0.022-0.036-0.041-0.043-0.066-0.013-0.047 0.028-0.111 0.019-0.157z"></path>
</symbol>
<symbol id="icon-polygon" viewBox="0 0 48 32">
<path d="M24 0l24 32h-48l24-32z"></path>
</symbol>
<symbol id="icon-three-line" viewBox="0 0 32 32">
<path fill="#fff" style="fill: var(--color1, #fff)" d="M0 0h32v32h-32v-32z"></path>
<path fill="#000" style="fill: var(--color2, #000)" d="M10 10h2v12h-2v-12z"></path>
<path fill="#000" style="fill: var(--color2, #000)" d="M15 10h2v12h-2v-12z"></path>
<path fill="#000" style="fill: var(--color2, #000)" d="M20 10h2v12h-2v-12z"></path>
</symbol>
<symbol id="icon-play" viewBox="0 0 32 32">
<path d="M6 4v24l20-12-20-12z"></path>
</symbol>
<symbol id="icon-stop" viewBox="0 0 32 32">
<path d="M5.333 4h8v24h-8v-24z"></path>
<path d="M18.667 4h8v24h-8v-24z"></path>
</symbol>
<symbol id="icon-graph" viewBox="0 0 537 32">
<path d="M0 30.968h536.774v1.032h-536.774v-1.032z"></path>
<path d="M3.094 29.419h4.129v1.548h-4.129v-1.548z"></path>
<path d="M8.255 26.323h4.129v4.645h-4.129v-4.645z"></path>
<path d="M13.416 24.258h4.129v6.71h-4.129v-6.71z"></path>
<path d="M18.578 22.71h4.129v8.258h-4.129v-8.258z"></path>
<path d="M23.739 19.613h4.129v11.355h-4.129v-11.355z"></path>
<path d="M28.9 19.613h4.129v11.355h-4.129v-11.355z"></path>
<path d="M34.061 18.065h4.129v12.903h-4.129v-12.903z"></path>
<path d="M39.223 19.613h4.129v11.355h-4.129v-11.355z"></path>
<path d="M44.384 19.613h4.129v11.355h-4.129v-11.355z"></path>
<path d="M49.545 22.71h4.129v8.258h-4.129v-8.258z"></path>
<path d="M54.707 26.323h4.129v4.645h-4.129v-4.645z"></path>
<path d="M59.868 26.323h4.129v4.645h-4.129v-4.645z"></path>
<path d="M65.029 27.871h4.129v3.097h-4.129v-3.097z"></path>
<path d="M70.19 27.871h4.129v3.097h-4.129v-3.097z"></path>
<path d="M75.352 27.871h4.129v3.097h-4.129v-3.097z"></path>
<path d="M80.513 29.419h4.129v1.548h-4.129v-1.548z"></path>
<path d="M85.674 29.419h4.129v1.548h-4.129v-1.548z"></path>
<path d="M90.836 29.419h4.129v1.548h-4.129v-1.548z"></path>
<path d="M95.997 29.419h4.129v1.548h-4.129v-1.548z"></path>
<path d="M101.158 29.419h4.129v1.548h-4.129v-1.548z"></path>
<path d="M106.319 29.419h4.129v1.548h-4.129v-1.548z"></path>
<path d="M111.481 29.419h4.129v1.548h-4.129v-1.548z"></path>
<path d="M116.642 29.419h4.129v1.548h-4.129v-1.548z"></path>
<path d="M121.803 29.419h4.129v1.548h-4.129v-1.548z"></path>
<path d="M126.965 29.419h4.129v1.548h-4.129v-1.548z"></path>
<path d="M132.126 29.419h4.129v1.548h-4.129v-1.548z"></path>
<path d="M137.287 29.419h4.129v1.548h-4.129v-1.548z"></path>
<path d="M142.449 29.419h4.129v1.548h-4.129v-1.548z"></path>
<path d="M147.61 30.452h4.129v0.516h-4.129v-0.516z"></path>
<path d="M152.771 29.935h4.129v1.032h-4.129v-1.032z"></path>
<path d="M163.094 29.935h4.129v1.032h-4.129v-1.032z"></path>
<path d="M235.352 26.839h4.129v4.129h-4.129v-4.129z"></path>
<path d="M240.513 22.71h4.129v8.258h-4.129v-8.258z"></path>
<path d="M245.674 19.613h4.129v11.355h-4.129v-11.355z"></path>
<path d="M250.836 18.065h4.129v12.903h-4.129v-12.903z"></path>
<path d="M255.997 15.484h4.129v15.484h-4.129v-15.484z"></path>
<path d="M261.158 7.226h4.129v23.742h-4.129v-23.742z"></path>
<path d="M266.319 22.71h4.129v8.258h-4.129v-8.258z"></path>
<path d="M271.481 11.355h4.129v19.613h-4.129v-19.613z"></path>
<path d="M276.642 19.613h4.129v11.355h-4.129v-11.355z"></path>
<path d="M281.803 11.355h4.129v19.613h-4.129v-19.613z"></path>
<path d="M286.965 11.355h4.129v19.613h-4.129v-19.613z"></path>
<path d="M292.126 11.355h4.129v19.613h-4.129v-19.613z"></path>
<path d="M297.287 19.613h4.129v11.355h-4.129v-11.355z"></path>
<path d="M302.449 11.355h4.129v19.613h-4.129v-19.613z"></path>
<path d="M307.61 19.613h4.129v11.355h-4.129v-11.355z"></path>
<path d="M312.771 11.355h4.129v19.613h-4.129v-19.613z"></path>
<path d="M317.932 22.71h4.129v8.258h-4.129v-8.258z"></path>
<path d="M323.094 11.355h4.129v19.613h-4.129v-19.613z"></path>
<path d="M328.255 11.355h4.129v19.613h-4.129v-19.613z"></path>
<path d="M333.416 11.355h4.129v19.613h-4.129v-19.613z"></path>
<path d="M338.578 11.355h4.129v19.613h-4.129v-19.613z"></path>
<path d="M343.739 11.355h4.129v19.613h-4.129v-19.613z"></path>
<path d="M348.9 11.355h4.129v19.613h-4.129v-19.613z"></path>
<path d="M354.061 11.355h4.129v19.613h-4.129v-19.613z"></path>
<path d="M359.223 11.355h4.129v19.613h-4.129v-19.613z"></path>
<path d="M364.384 11.355h4.129v19.613h-4.129v-19.613z"></path>
<path d="M369.545 11.355h4.129v19.613h-4.129v-19.613z"></path>
<path d="M374.707 11.355h4.129v19.613h-4.129v-19.613z"></path>
<path d="M379.868 11.355h4.129v19.613h-4.129v-19.613z"></path>
<path d="M385.029 11.355h4.129v19.613h-4.129v-19.613z"></path>
<path d="M390.19 11.355h4.129v19.613h-4.129v-19.613z"></path>
<path d="M395.352 11.355h4.129v19.613h-4.129v-19.613z"></path>
<path d="M400.513 0h4.129v30.968h-4.129v-30.968z"></path>
<path d="M405.674 0h4.129v30.968h-4.129v-30.968z"></path>
<path d="M410.836 0h4.129v30.968h-4.129v-30.968z"></path>
<path d="M415.997 0h4.129v30.968h-4.129v-30.968z"></path>
<path d="M421.158 0h4.129v30.968h-4.129v-30.968z"></path>
<path d="M426.319 0h4.129v30.968h-4.129v-30.968z"></path>
<path d="M431.481 0h4.129v30.968h-4.129v-30.968z"></path>
<path d="M436.642 0h4.129v30.968h-4.129v-30.968z"></path>
<path d="M441.803 0h4.129v30.968h-4.129v-30.968z"></path>
<path d="M446.965 0h4.129v30.968h-4.129v-30.968z"></path>
<path d="M452.126 0h4.129v30.968h-4.129v-30.968z"></path>
<path d="M457.287 0h4.129v30.968h-4.129v-30.968z"></path>
<path d="M462.449 0h4.129v30.968h-4.129v-30.968z"></path>
<path d="M467.61 0h4.129v30.968h-4.129v-30.968z"></path>
<path d="M472.771 0h4.129v30.968h-4.129v-30.968z"></path>
<path d="M477.932 11.355h4.129v19.613h-4.129v-19.613z"></path>
<path d="M483.094 11.355h4.129v19.613h-4.129v-19.613z"></path>
<path d="M488.255 11.355h4.129v19.613h-4.129v-19.613z"></path>
<path d="M493.416 11.355h4.129v19.613h-4.129v-19.613z"></path>
<path d="M498.578 11.355h4.129v19.613h-4.129v-19.613z"></path>
<path d="M503.739 11.355h4.129v19.613h-4.129v-19.613z"></path>
<path d="M508.9 11.355h4.129v19.613h-4.129v-19.613z"></path>
<path d="M514.061 11.355h4.129v19.613h-4.129v-19.613z"></path>
<path d="M519.221 11.355h4.129v19.613h-4.129v-19.613z"></path>
<path d="M524.382 11.355h4.129v19.613h-4.129v-19.613z"></path>
<path d="M529.543 11.355h4.129v19.613h-4.129v-19.613z"></path>
</symbol>
</defs>
</svg>
